<?xml version="1.0" encoding="UTF-8"?>
<svg version="1.1" xmlns="http://www.w3.org/2000/svg" width="180" height="180">
<path d="M0 0 C59.4 0 118.8 0 180 0 C180 59.4 180 118.8 180 180 C120.6 180 61.2 180 0 180 C0 120.6 0 61.2 0 0 Z " fill="#DDDDDD" transform="translate(0,0)"/>
<path d="M0 0 C21.45 0 42.9 0 65 0 C65 58.74 65 117.48 65 178 C45.86 178 26.72 178 7 178 C7 175.69 7 173.38 7 171 C6.34 170.67 5.68 170.34 5 170 C5.0721875 169.26910156 5.144375 168.53820312 5.21875 167.78515625 C4.94231945 164.26560303 3.80229078 163.06412143 1.5 160.4375 C-2 156.43055556 -2 156.43055556 -2 152 C-3.32 152 -4.64 152 -6 152 C-6.65907418 150.8197974 -7.3014948 149.63029266 -7.9375 148.4375 C-8.47697266 147.44556641 -8.47697266 147.44556641 -9.02734375 146.43359375 C-10.26809032 143.32923586 -10.61895339 140.30908896 -11 137 C-9.865625 137.03480469 -8.73125 137.06960937 -7.5625 137.10546875 C4.95660791 137.6997059 4.95660791 137.6997059 15.953125 132.44140625 C21.43308801 127.08396274 22.39141239 121.45209318 23 114 C25.5654594 116.5654594 25.54046087 118.47686668 26 122 C26.33 122 26.66 122 27 122 C25.18208561 114.04122963 25.18208561 114.04122963 20 108 C20.33 108.99 20.66 109.98 21 111 C22.31242935 123.29364204 22.31242935 123.29364204 18.4375 128.3125 C15.79149987 130.87640466 15.01357162 130.99846772 11.125 131.4375 C10.09375 131.293125 9.0625 131.14875 8 131 C8 131.66 8 132.32 8 133 C9.65 133 11.3 133 13 133 C10.78552608 135.21447392 9.23297922 135.92637276 6.09887695 136.11352539 C5.40238037 136.10828857 4.70588379 136.10305176 3.98828125 136.09765625 C3.23095703 136.09443359 2.47363281 136.09121094 1.69335938 136.08789062 C0.90767578 136.07951172 0.12199219 136.07113281 -0.6875 136.0625 C-1.48478516 136.05798828 -2.28207031 136.05347656 -3.10351562 136.04882812 C-5.06904257 136.0370585 -7.03453085 136.01912348 -9 136 C-8.29423828 134.91332031 -8.29423828 134.91332031 -7.57421875 133.8046875 C-1.56164842 125.5237757 -1.56164842 125.5237757 1 116 C1.99 115.34 2.98 114.68 4 114 C3.41992188 114.02320312 2.83984375 114.04640625 2.2421875 114.0703125 C-2.54166257 114.18083049 -6.60367261 114.14454995 -11 112 C-12.125 109.9375 -12.125 109.9375 -13 108 C-14.98 107.505 -14.98 107.505 -17 107 C-17 102.71 -17 98.42 -17 94 C-18.65 93.34 -20.3 92.68 -22 92 C-29.83267347 86.13890701 -33.17406071 79.18785286 -36 70 C-35.22880073 86.26862861 -35.22880073 86.26862861 -29 101 C-35.625 102.25 -35.625 102.25 -39 100 C-40.485 99.505 -40.485 99.505 -42 99 C-42.7136591 96.68060793 -43.3747292 94.34476551 -44 92 C-45.21113867 88.93653159 -46.10278917 87.41561972 -49.125 86.015625 C-50.3315625 85.54382813 -50.3315625 85.54382813 -51.5625 85.0625 C-55.8148982 83.38501175 -55.8148982 83.38501175 -57.5625 79.75 C-57.706875 78.8425 -57.85125 77.935 -58 77 C-58.66 77 -59.32 77 -60 77 C-59.67 74.03 -59.34 71.06 -59 68 C-63.93583112 72.93583112 -64.18435695 79.20975689 -64.55859375 85.921875 C-65 88 -65 88 -66.4765625 89.734375 C-69.09191408 93.62387223 -68.79224263 98.21849097 -69.08398438 102.80078125 C-69.39745156 106.41673602 -69.63043895 108.4848788 -71.78515625 111.48828125 C-74.22062709 113.15058674 -75.58234494 113.54261644 -78.5 113.6875 C-81.71778622 113.87360822 -81.71778622 113.87360822 -84.86767578 114.49609375 C-88.65819308 115.3918606 -92.49600427 115.26815173 -96.375 115.3125 C-97.21289062 115.34150391 -98.05078125 115.37050781 -98.9140625 115.40039062 C-104.60422843 115.45854484 -107.59180653 114.63999037 -112 111 C-111.236875 110.2575 -110.47375 109.515 -109.6875 108.75 C-107.02446612 106.25610671 -107.02446612 106.25610671 -105.75 103.8125 C-102.87046186 100.83012121 -98.98448937 100.63484527 -95 100 C-96.98 98.68 -98.96 97.36 -101 96 C-100.7834375 95.21238281 -100.566875 94.42476563 -100.34375 93.61328125 C-98.29185806 85.58620398 -97.63461167 78.26860266 -98 70 C-98.639375 71.0725 -99.27875 72.145 -99.9375 73.25 C-100.29714844 73.85328125 -100.65679687 74.4565625 -101.02734375 75.078125 C-104.08212167 81.11407174 -103.72897868 88.4314368 -103 95 C-101.57389827 97.58792586 -100.51672183 98.36413081 -98 100 C-99.45742463 100.08096803 -100.91612807 100.13917774 -102.375 100.1875 C-103.18710938 100.22230469 -103.99921875 100.25710937 -104.8359375 100.29296875 C-105.55007812 100.19628906 -106.26421875 100.09960938 -107 100 C-109.68129066 95.97806401 -109.5468167 92.64794191 -109 88 C-107.12581571 80.07731188 -103.89458386 70.89458386 -98 65 C-96.36930824 64.94825634 -94.73642276 64.96512699 -93.10546875 65.0078125 C-27.34921034 68.18369199 -27.34921034 68.18369199 30.875 45.25 C31.431875 44.63125 31.431875 44.63125 32 44 C31.56449558 49.13594872 30.14635313 51.53491546 26.625 55.25 C25.83351562 56.10078125 25.04203125 56.9515625 24.2265625 57.828125 C19.94964029 62 19.94964029 62 16 62 C16 62.66 16 63.32 16 64 C12.04 65.98 8.08 67.96 4 70 C5.03406673 71.25949049 5.03406673 71.25949049 7.28515625 71.09765625 C8.20167969 71.08605469 9.11820312 71.07445313 10.0625 71.0625 C10.98160156 71.05347656 11.90070313 71.04445313 12.84765625 71.03515625 C13.55792969 71.02355469 14.26820313 71.01195313 15 71 C13.35 70.67 11.7 70.34 10 70 C17.71428571 64 17.71428571 64 22 64 C22.66 65.65 23.32 67.3 24 69 C25.65 69 27.3 69 29 69 C27.52562744 75.55276695 23.91143895 80.40460206 18.33398438 84.10546875 C16.43498303 85.24847906 14.5146601 86.32545156 12.5625 87.375 C11.63207886 87.87555908 11.63207886 87.87555908 10.68286133 88.38623047 C4.97503483 91.29053983 -0.52665758 93 -7 93 C-7.10957031 93.59167969 -7.21914062 94.18335937 -7.33203125 94.79296875 C-8.25914403 99.41345763 -9.22351335 103.0876779 -12 107 C-8.38075449 107.37193827 -5.41598931 107.32446292 -2 106 C0.06470545 103.03740794 1.34228095 100.14670639 2.6484375 96.78515625 C4.16623498 93.65744064 4.88548519 93.24460341 8 92 C9.00930172 91.00938906 10.00893374 90.00885463 11 89 C18.37917088 83.84563532 18.37917088 83.84563532 22.625 84.25 C28.15751738 88.32659176 32.45848777 93.09747962 36 99 C36.37253906 99.62003906 36.74507812 100.24007812 37.12890625 100.87890625 C38.18630888 103.45365794 38.02713804 105.01546134 37.625 107.75 C37.51414063 108.54921875 37.40328125 109.3484375 37.2890625 110.171875 C37.14597656 111.07679687 37.14597656 111.07679687 37 112 C38.82250476 108.12717739 39.33793319 105.26835612 39 101 C37.69265692 97.84832203 37.69265692 97.84832203 35.9375 94.8125 C34.21484375 91.70703125 34.21484375 91.70703125 33 89 C33.33 88.01 33.66 87.02 34 86 C33.81631432 80.54997441 33.81631432 80.54997441 31.375 75.9375 C30 74 30 74 30.3125 70.25 C30.6528125 68.64125 30.6528125 68.64125 31 67 C28.525 67.495 28.525 67.495 26 68 C24.375 65.75 24.375 65.75 23 63 C24.14782698 59.95764139 25.99365169 57.59551474 28 55.0625 C31.35685189 50.64946788 33 47.64887055 33 42 C31.88625 42.7734375 31.88625 42.7734375 30.75 43.5625 C28 45 28 45 26 44.875 C24 44 24 44 21.78515625 42.578125 C18.72177823 40.842354 15.81197651 39.86818312 12.4375 38.875 C11.32246094 38.54242188 10.20742187 38.20984375 9.05859375 37.8671875 C6.71239721 37.20198235 4.37105431 36.56812548 2 36 C-1.25669874 24.66997245 0 11.38529339 0 0 Z " fill="#E4E4E4" transform="translate(115,1)"/>
<path d="M0 0 C59.4 0 118.8 0 180 0 C180 0.33 180 0.66 180 1 C158.55 1 137.1 1 115 1 C115.99 18.82 115.99 18.82 117 37 C119.97 37.33 122.94 37.66 126 38 C129.46875 39.05078125 129.46875 39.05078125 132.5 40.3125 C133.5209375 40.72113281 134.541875 41.12976562 135.59375 41.55078125 C138 43 138 43 138.84375 45.16796875 C138.8953125 45.77253906 138.946875 46.37710938 139 47 C127.52170302 54.65219799 104.59266008 51.62370682 91.3125 52 C71.03150671 52.56592724 71.03150671 52.56592724 50.79296875 53.9375 C49.92811356 54.01218506 49.06325836 54.08687012 48.17219543 54.16381836 C43.31935395 54.63128829 38.6574187 55.4203919 33.91705322 56.56285095 C31.47507655 57.11969923 29.05789115 57.37484659 26.5625 57.5625 C23.15051599 57.80121606 23.15051599 57.80121606 20 59 C17.83589316 59.12244289 15.66753477 59.17551142 13.5 59.1875 C11.75203125 59.20876953 11.75203125 59.20876953 9.96875 59.23046875 C7 59 7 59 5 57 C4.875 54.375 4.875 54.375 5 52 C18.10679612 44.63106796 18.10679612 44.63106796 23 43 C22.61706714 39.01565651 22.22612472 35.03218378 21.828125 31.04931641 C21.69414885 29.69763881 21.56226606 28.34575186 21.43261719 26.99365234 C20.64945381 18.10485802 20.64945381 18.10485802 18.8984375 9.375 C18 6 18 6 18 1 C12.06 1 6.12 1 0 1 C0 0.67 0 0.34 0 0 Z " fill="#0C0C11" transform="translate(0,0)"/>
<path d="M0 0 C5.94 0 11.88 0 18 0 C20.18697771 8.15146238 21.44025708 15.98213516 22.1875 24.375 C22.27112793 25.31359863 22.35475586 26.25219727 22.44091797 27.21923828 C22.85043295 32.1642418 23.08883961 37.03864964 23 42 C11 49 11 49 5 51 C5.66 52.98 6.32 54.96 7 57 C9.12493141 57.02693575 11.24995912 57.04636628 13.375 57.0625 C14.55835938 57.07410156 15.74171875 57.08570313 16.9609375 57.09765625 C19.91921521 57.21466593 19.91921521 57.21466593 22 56 C24.07749955 55.65081575 26.16247822 55.3456728 28.25 55.0625 C33.91961862 54.28691369 33.91961862 54.28691369 39.58203125 53.4609375 C40.73058594 53.28820313 41.87914062 53.11546875 43.0625 52.9375 C44.08472656 52.78152344 45.10695312 52.62554687 46.16015625 52.46484375 C56.0475674 51.26789367 65.97262038 50.82622053 75.921875 50.53515625 C78.35417474 50.45662991 80.78646617 50.37784582 83.21875 50.29882812 C86.98103843 50.17966615 90.74335834 50.06269816 94.50585938 49.95043945 C118.46508373 51.06437814 118.46508373 51.06437814 140 44 C141.65821773 43.62690101 143.32577014 43.29299023 145 43 C147.23408113 42.00916033 147.23408113 42.00916033 149 41 C148.30328186 49.36061771 145.27046329 55.42625486 139 61 C139.99 64.465 139.99 64.465 141 68 C143.475 67.505 143.475 67.505 146 67 C145.938125 68.0725 145.87625 69.145 145.8125 70.25 C145.63891928 73.89665716 145.63891928 73.89665716 147.4375 75.875 C149.86832613 79.18092353 149.97024239 82.96040379 150 87 C149.67 87.99 149.34 88.98 149 90 C150.26283568 92.45024706 150.26283568 92.45024706 152 95.0625 C154.82950533 100.01905806 155.61482457 103.22172884 154.6328125 108.828125 C153.83823986 111.55517678 152.72771861 113.74645399 151 116 C150.67 115.34 150.34 114.68 150 114 C150.309375 113.2575 150.61875 112.515 150.9375 111.75 C152.54615849 107.58641332 152.81521162 104.84430006 150.97265625 100.67578125 C147.37282347 94.16417236 142.7902122 89.60643548 137 85 C134.18217856 86.10033774 131.51218204 87.24869151 128.8125 88.625 C126 90 126 90 124 90 C123.505 91.485 123.505 91.485 123 93 C120.9375 93.6875 120.9375 93.6875 119 94 C118.9071875 94.99 118.9071875 94.99 118.8125 96 C117.66125116 100.25076495 116.29470033 103.96385238 113 107 C109.57098637 107.68685135 106.44856179 107.48212903 103 107 C103.45636536 105.603522 103.91519488 104.2078492 104.375 102.8125 C104.63023438 102.03519531 104.88546875 101.25789063 105.1484375 100.45703125 C105.42945312 99.64621094 105.71046875 98.83539063 106 98 C106.25652344 97.1028125 106.51304688 96.205625 106.77734375 95.28125 C108 93 108 93 110.29296875 92.13671875 C111.24816406 91.98847656 112.20335938 91.84023437 113.1875 91.6875 C122.8836915 89.6172637 133.98670338 84.89083028 139.9921875 76.67578125 C141.49235773 74.18131215 142.83006313 71.6648562 144 69 C141.36 69.33 138.72 69.66 136 70 C136.99 69.67 137.98 69.34 139 69 C138.34 67.35 137.68 65.7 137 64 C132.05 66.475 132.05 66.475 127 69 C129.64 69.33 132.28 69.66 135 70 C135 70.33 135 70.66 135 71 C130.14246955 72.29534145 124.9915868 72.49915868 120 72 C118.515 71.01 118.515 71.01 117 70 C118.95585325 68.99515796 120.91476237 67.99626195 122.875 67 C123.96554688 66.443125 125.05609375 65.88625 126.1796875 65.3125 C129 64 129 64 131 64 C131 63.34 131 62.68 131 62 C132.010625 61.505 133.02125 61.01 134.0625 60.5 C138.5880527 57.92320571 142.09008282 54.30738501 145 50 C145 49.01 145 48.02 145 47 C144.45214844 47.44730469 143.90429688 47.89460938 143.33984375 48.35546875 C123.66205446 63.36178286 95.20974621 62.7906512 71.48983765 64.43014526 C69.59342977 64.56200805 67.6972918 64.69780157 65.80142212 64.83718872 C56.16086687 65.54334244 46.60380348 66.18387205 36.9375 65.76953125 C36.26153275 65.74522034 35.58556549 65.72090942 34.88911438 65.69586182 C31.80930673 65.57843786 28.76036485 65.39603057 25.69213867 65.09814453 C22.40858893 64.92991097 20.10032818 64.89242558 17 66 C10.01035175 73.91233376 6.57297522 84.73884344 6.796875 95.1875 C6.90556431 97.09847651 6.90556431 97.09847651 8 99 C10.31 99 12.62 99 15 99 C14.34902344 98.48050781 13.69804687 97.96101563 13.02734375 97.42578125 C9.69243747 93.43545986 10.52667077 89.42104927 10.671875 84.421875 C11.07813426 80.18517126 11.8910993 77.67104937 14 74 C14.53625 73.030625 15.0725 72.06125 15.625 71.0625 C16.07875 70.381875 16.5325 69.70125 17 69 C17.33 69 17.66 69 18 69 C18.38408795 78.48839486 17.55403863 86.84802826 15 96 C17.90092502 97.93395001 18.89674737 98.30131941 22.1875 98.625 C24.0746875 98.810625 24.0746875 98.810625 26 99 C26 99.33 26 99.66 26 100 C24.43883181 100.33951619 22.87598662 100.67132544 21.3125 101 C20.44238281 101.185625 19.57226562 101.37125 18.67578125 101.5625 C16.06287036 101.98972047 13.64186962 102.07616201 11 102 C10.731875 102.598125 10.46375 103.19625 10.1875 103.8125 C9.01506533 105.97224808 7.80630718 107.35790256 6 109 C5.34 108.67 4.68 108.34 4 108 C4.99 106.68 5.98 105.36 7 104 C6.26716797 103.40058594 6.26716797 103.40058594 5.51953125 102.7890625 C2.67770379 99.44315767 3.67533841 95.1654694 4 91 C4.76386791 81.90148441 9.82955497 73.92842847 14 66 C14.495 65.01 14.495 65.01 15 64 C13.7625 63.835 12.525 63.67 11.25 63.5 C10.55390625 63.4071875 9.8578125 63.314375 9.140625 63.21875 C5.15996282 62.811967 3.39450432 62.73699712 0 65 C0 43.55 0 22.1 0 0 Z " fill="#1C1C23" transform="translate(0,1)"/>
<path d="M0 0 C4.27056661 1.74949682 5.36216132 3.90850221 7.25 7.95703125 C8.14686826 10.40006301 8.32251441 12.4198847 8 15 C9.32 14.67 10.64 14.34 12 14 C11.67 14.66 11.34 15.32 11 16 C9.35 16 7.7 16 6 16 C5.67 13.69 5.34 11.38 5 9 C4.93683594 9.6290625 4.87367188 10.258125 4.80859375 10.90625 C3.78508887 18.06001045 1.35494733 22.17822924 -4 27 C-9.09574088 30.67367366 -13.29604192 31.13922926 -19.5 31.125 C-20.6240625 31.12757813 -21.748125 31.13015625 -22.90625 31.1328125 C-25.4720699 31.02266367 -27.56266427 30.75270662 -30 30 C-29.319375 31.7634375 -29.319375 31.7634375 -28.625 33.5625 C-27.20671892 37.33338003 -26.05286822 41.11248657 -25 45 C-23.68 45 -22.36 45 -21 45 C-20.4121875 46.546875 -20.4121875 46.546875 -19.8125 48.125 C-18.63893064 50.93703092 -17.32682811 52.90354598 -15.25 55.125 C-13 58 -13 58 -13.1875 60.875 C-13.455625 61.57625 -13.72375 62.2775 -14 63 C-12.515 63.495 -12.515 63.495 -11 64 C-11.33 66.31 -11.66 68.62 -12 71 C7.14 71 26.28 71 46 71 C46 71.33 46 71.66 46 72 C-13.4 72 -72.8 72 -134 72 C-134 25 -134 25 -133 24 C-130.66702567 23.95907063 -128.33294775 23.95758277 -126 24 C-126.54341623 27.91259689 -127.66579882 29.88773176 -130 33 C-130.71433121 35.64934822 -130.71433121 35.64934822 -131 38 C-129.96875 38.0825 -128.9375 38.165 -127.875 38.25 C-123.47024613 39.10253301 -121.51487063 40.34241489 -118 43 C-118.33 43.66 -118.66 44.32 -119 45 C-119.99 44.67 -120.98 44.34 -122 44 C-122.804375 44.804375 -123.60875 45.60875 -124.4375 46.4375 C-125.625 47.625 -126.8125 48.8125 -128 50 C-128.23363881 51.84891946 -128.41303635 53.70488031 -128.5625 55.5625 C-128.64628906 56.57441406 -128.73007813 57.58632812 -128.81640625 58.62890625 C-128.90728516 59.80259766 -128.90728516 59.80259766 -129 61 C-127.68 61 -126.36 61 -125 61 C-124.67 62.98 -124.34 64.96 -124 67 C-123.13375 66.505 -122.2675 66.01 -121.375 65.5 C-117.69313791 63.86361685 -115.95396462 63.2737616 -112 64 C-110.15901865 65.43187439 -108.50402933 66.99296883 -106.8125 68.59765625 C-103.95640804 70.8074343 -101.54924676 70.85513279 -98 71 C-97.67 70.34 -97.34 69.68 -97 69 C-97 69.66 -97 70.32 -97 71 C-90.4 71 -83.8 71 -77 71 C-77 70.34 -77 69.68 -77 69 C-75.9275 69.165 -74.855 69.33 -73.75 69.5 C-69.96971248 70.08810915 -69.96971248 70.08810915 -66 70 C-63.66365343 70.31151288 -61.32961443 70.64159778 -59 71 C-59 70.0925 -59 69.185 -59 68.25 C-58 65 -58 65 -56.50390625 63.81640625 C-51.2861588 61.1182954 -45.65118799 59.52860003 -40 58 C-40.26329705 51.94416794 -42.41991314 48.30726995 -45.8203125 43.33203125 C-47 41 -47 41 -46.74609375 38.87109375 C-46.49988281 38.25363281 -46.25367187 37.63617188 -46 37 C-45.649375 36.0925 -45.29875 35.185 -44.9375 34.25 C-44.4734375 33.13625 -44.4734375 33.13625 -44 32 C-48.455 32.495 -48.455 32.495 -53 33 C-53.33 33.99 -53.66 34.98 -54 36 C-58.62 36 -63.24 36 -68 36 C-67.01 37.98 -67.01 37.98 -66 40 C-65.9222654 42.33203812 -65.91032272 44.66839059 -66 47 C-67.98 46.505 -67.98 46.505 -70 46 C-70.66 50.62 -71.32 55.24 -72 60 C-73.670625 60.4125 -75.34125 60.825 -77.0625 61.25 C-81.94363704 62.56803313 -85.76396491 64.27011072 -90 67 C-96.24913495 57.1799308 -96.24913495 57.1799308 -95.75 52.8125 C-95.22911633 51.5536978 -94.68571086 50.30407405 -94.125 49.0625 C-94.08375 48.381875 -94.0425 47.70125 -94 47 C-95.64429829 45.31126121 -97.31384218 43.64694485 -99 42 C-100.57856784 38.31667504 -101 36.04306781 -101 32 C-96.25 32.875 -96.25 32.875 -94 34 C-92.65754108 31.31508215 -92.97450627 28.9149467 -93.0625 25.97265625 C-93 24 -93 24 -92 21 C-93.32 21.33 -94.64 21.66 -96 22 C-95.505 25.465 -95.505 25.465 -95 29 C-98 29 -98 29 -100 28 C-100 27.34 -100 26.68 -100 26 C-101.32 25.34 -102.64 24.68 -104 24 C-102.68 23.34 -101.36 22.68 -100 22 C-103.63 20.02 -107.26 18.04 -111 16 C-111 17.65 -111 19.3 -111 21 C-113.46800047 19.84826645 -115.04783565 18.95216435 -117 17 C-117 16.01 -117 15.02 -117 14 C-117.66 13.67 -118.32 13.34 -119 13 C-118.34 13 -117.68 13 -117 13 C-116.67 12.34 -116.34 11.68 -116 11 C-115.34 12.65 -114.68 14.3 -114 16 C-113.67 15.01 -113.34 14.02 -113 13 C-109.83467602 13.60925484 -107.8451231 14.68049957 -105.25 16.5625 C-100.8738492 19.3710744 -98.14806843 19.77221026 -93 19 C-90.62280307 17.12498069 -90.62280307 17.12498069 -89 15 C-88.34 15 -87.68 15 -87 15 C-88 18 -88 18 -90 20 C-89.34 20.33 -88.68 20.66 -88 21 C-88 21.66 -88 22.32 -88 23 C-87.071875 23.0825 -86.14375 23.165 -85.1875 23.25 C-81.92310078 23.68054084 -79.42204506 24.70019959 -76.4375 26.0625 C-62.50147056 31.28371213 -45.31742401 29.02454896 -32 23 C-26.24116809 19.84772169 -22.08989197 17.42366794 -20 11 C-20.7425 10.9175 -21.485 10.835 -22.25 10.75 C-25 10 -25 10 -29 6 C-24.05 6 -19.1 6 -14 6 C-15 9 -15 9 -17 10 C-17.37125 11.2065625 -17.37125 11.2065625 -17.75 12.4375 C-19.72329109 18.0613796 -22.75840646 23.75840646 -27 28 C-24.39576408 28.02697137 -21.79180756 28.04682489 -19.1875 28.0625 C-18.44951172 28.07087891 -17.71152344 28.07925781 -16.95117188 28.08789062 C-13.70077932 28.10259828 -11.10595105 28.03531702 -8 27 C-9.485 26.505 -9.485 26.505 -11 26 C-11 25.34 -11 24.68 -11 24 C-9.948125 23.95875 -8.89625 23.9175 -7.8125 23.875 C-4.07697344 23.01766604 -2.18033057 22.25265749 0.12890625 19.1484375 C2.45651052 13.40770948 1.74410759 5.86134519 0 0 Z " fill="#292927" transform="translate(134,108)"/>
<path d="M0 0 C0.66 0 1.32 0 2 0 C3.0064275 1.66279327 4.00585407 3.32983484 5 5 C5.99 5.66 6.98 6.32 8 7 C7.67 5.02 7.34 3.04 7 1 C10.96 2.98 14.92 4.96 19 7 C19 9.33333333 19 11.66666667 19 14 C20.32 14.33 21.64 14.66 23 15 C23 12.69 23 10.38 23 8 C24.32 7.67 25.64 7.34 27 7 C27.08114106 8.77007714 27.13925505 10.54122098 27.1875 12.3125 C27.23970703 13.79169922 27.23970703 13.79169922 27.29296875 15.30078125 C27 18 27 18 25.48828125 19.85546875 C24.99714844 20.23316406 24.50601563 20.61085937 24 21 C23.34 20.34 22.68 19.68 22 19 C19.93125966 18.3574765 19.93125966 18.3574765 18 18 C19.59360653 24.55581223 21.26064162 29.13255086 26 34 C25.649375 34.556875 25.29875 35.11375 24.9375 35.6875 C23.44538264 39.36805616 24.47735786 41.74311971 25.96484375 45.3203125 C26.95113794 47.55965661 27.96208769 49.78417791 29 52 C29.54527344 51.65066406 30.09054688 51.30132812 30.65234375 50.94140625 C36.25119443 47.56295447 40.47051512 46.31092785 47 46 C46.97679687 45.40832031 46.95359375 44.81664062 46.9296875 44.20703125 C46.82588536 39.66198041 46.86291643 36.14059941 49 32 C50.98 32.495 50.98 32.495 53 33 C52.83242187 32.22914063 52.66484375 31.45828125 52.4921875 30.6640625 C52.18667969 29.15972656 52.18667969 29.15972656 51.875 27.625 C51.56175781 26.12839844 51.56175781 26.12839844 51.2421875 24.6015625 C51.12230469 23.31378906 51.12230469 23.31378906 51 22 C53.58926331 19.41073669 55.02705279 19.62601957 58.625 19.375 C60.12933594 19.26285156 60.12933594 19.26285156 61.6640625 19.1484375 C62.82035156 19.07496094 62.82035156 19.07496094 64 19 C64 18.67 64 18.34 64 18 C67.63 18 71.26 18 75 18 C74.319375 19.918125 74.319375 19.918125 73.625 21.875 C72.88250189 25.08744082 72.79237007 26.54168644 74.16796875 29.578125 C75.26420551 31.27585984 76.38421423 32.95847861 77.52734375 34.625 C79.52275137 37.84305792 79.83753247 40.26324671 80 44 C75.91467085 45.77623006 71.81246906 47.50518316 67.6875 49.1875 C66.84574219 49.53167969 66.00398438 49.87585938 65.13671875 50.23046875 C63 51 63 51 61 51 C60.67 52.98 60.34 54.96 60 57 C46 57 46 57 42 55 C42 55.66 42 56.32 42 57 C37.47965943 57.17501567 32.96019553 57.28110321 28.4375 57.375 C27.16068359 57.42527344 25.88386719 57.47554687 24.56835938 57.52734375 C13.93708922 57.69302588 13.93708922 57.69302588 9.80078125 54.0078125 C9.31907471 53.46012207 8.83736816 52.91243164 8.34106445 52.34814453 C6.92674129 50.65964978 6.92674129 50.65964978 3.75 50.5 C0.79637631 50.84909107 0.79637631 50.84909107 -2 53 C-2.99 53 -3.98 53 -5 53 C-5.66 51.02 -6.32 49.04 -7 47 C-8.98 47.495 -8.98 47.495 -11 48 C-10.78970962 36.18550403 -10.78970962 36.18550403 -7.6875 32.3125 C-4.10514786 29.23001095 -4.10514786 29.23001095 -1 29 C-4.36423277 26.03947516 -7.69159287 25.07710178 -12 24 C-12.39918183 20.50715897 -12.22907865 19.30297499 -10.0625 16.4375 C-9.381875 15.633125 -8.70125 14.82875 -8 14 C-7.22166466 11.81785432 -7.22166466 11.81785432 -7 10 C-9.64 10.33 -12.28 10.66 -15 11 C-15 9.68 -15 8.36 -15 7 C-7.575 7.99 -7.575 7.99 0 9 C0 6.03 0 3.06 0 0 Z " fill="#E3E3E3" transform="translate(15,122)"/>
<path d="M0 0 C16.5 0 33 0 50 0 C50 0.66 50 1.32 50 2 C49.34 2 48.68 2 48 2 C47.67 2.99 47.34 3.98 47 5 C46.34 5.33 45.68 5.66 45 6 C44.34227572 9.02934491 44.34227572 9.02934491 44 12 C44.61875 12.061875 45.2375 12.12375 45.875 12.1875 C48 13 48 13 49.1875 15.5 C49.455625 16.325 49.72375 17.15 50 18 C50.33 18.33 50.66 18.66 51 19 C51.495 20.485 51.495 20.485 52 22 C51.525625 22.4125 51.05125 22.825 50.5625 23.25 C48.83733482 25.182185 48.43415125 26.48192275 48 29 C48.66 29.33 49.32 29.66 50 30 C49.34 32.31 48.68 34.62 48 37 C47.01 37 46.02 37 45 37 C44.67 39.64 44.34 42.28 44 45 C42.02 45 40.04 45 38 45 C37.67 46.32 37.34 47.64 37 49 C36.05125 49.0825 35.1025 49.165 34.125 49.25 C30.92495384 49.65560411 30.92495384 49.65560411 29.625 51.9375 C28.90333087 53.95982189 28.90333087 53.95982189 29 56 C30.485 56.495 30.485 56.495 32 57 C31.30132813 57.06058594 30.60265625 57.12117188 29.8828125 57.18359375 C28.97273438 57.26738281 28.06265625 57.35117187 27.125 57.4375 C26.22007813 57.51871094 25.31515625 57.59992187 24.3828125 57.68359375 C21.98889139 57.86989285 21.98889139 57.86989285 20 59 C17.83589316 59.12244289 15.66753477 59.17551142 13.5 59.1875 C11.75203125 59.20876953 11.75203125 59.20876953 9.96875 59.23046875 C7 59 7 59 5 57 C4.875 54.375 4.875 54.375 5 52 C18.10679612 44.63106796 18.10679612 44.63106796 23 43 C22.61706714 39.01565651 22.22612472 35.03218378 21.828125 31.04931641 C21.69414885 29.69763881 21.56226606 28.34575186 21.43261719 26.99365234 C20.64945381 18.10485802 20.64945381 18.10485802 18.8984375 9.375 C18 6 18 6 18 1 C12.06 1 6.12 1 0 1 C0 0.67 0 0.34 0 0 Z " fill="#191923" transform="translate(0,0)"/>
<path d="M0 0 C0.66 0 1.32 0 2 0 C2.125 6.75 2.125 6.75 1 9 C1.66 9 2.32 9 3 9 C3.144375 9.928125 3.28875 10.85625 3.4375 11.8125 C4.61012195 15.0897764 4.61012195 15.0897764 6.9609375 15.8203125 C7.73695312 16.02398437 8.51296875 16.22765625 9.3125 16.4375 C13.78018365 17.66251003 15.76828023 19.22933805 18.203125 23.1484375 C19.35798815 25.83179601 19.34960694 28.13322308 19 31 C20.0725 31.144375 21.145 31.28875 22.25 31.4375 C24.91662949 31.83749442 27.41399729 32.27591924 30 33 C30 32.34 30 31.68 30 31 C29.34 30.34 28.68 29.68 28 29 C25.42535008 20.16734931 24.44121706 11.15905761 24 2 C24.66 1.67 25.32 1.34 26 1 C26.268125 1.9178125 26.53625 2.835625 26.8125 3.78125 C29.37645371 11.81047346 32.08419879 17.80005098 39 23 C39.90105469 23.42539063 40.80210938 23.85078125 41.73046875 24.2890625 C44 26 44 26 44.48828125 29.13671875 C44.40126953 30.89435547 44.40126953 30.89435547 44.3125 32.6875 C44.26738281 33.86699219 44.22226563 35.04648438 44.17578125 36.26171875 C44.08876953 37.61716797 44.08876953 37.61716797 44 39 C45.175625 39.0928125 45.175625 39.0928125 46.375 39.1875 C47.24125 39.455625 48.1075 39.72375 49 40 C50.3125 42.5625 50.3125 42.5625 51 45 C37.30670326 44.26917798 37.30670326 44.26917798 33 42.9375 C25.67066935 40.82296426 16.94527343 40.84086521 10 44 C2.89653484 45.57854781 -3.90096171 45.18317305 -11 44 C-10.86722656 43.31035156 -10.73445313 42.62070313 -10.59765625 41.91015625 C-9.59803289 36.59099252 -8.75469325 31.37938344 -8.44140625 25.97265625 C-8 24 -8 24 -6.52734375 22.17578125 C-4.44781436 19.2133826 -4.36938516 16.70341878 -4 13.125 C-3.47662132 8.07657644 -2.49685317 4.43734233 0 0 Z " fill="#292826" transform="translate(54,69)"/>
<path d="M0 0 C0.309375 0.639375 0.61875 1.27875 0.9375 1.9375 C1.8345163 3.93610821 1.8345163 3.93610821 3 5 C3.33 4.01 3.66 3.02 4 2 C7.16532398 2.60925484 9.1548769 3.68049957 11.75 5.5625 C16.1261508 8.3710744 18.85193157 8.77221026 24 8 C26.37719693 6.12498069 26.37719693 6.12498069 28 4 C28.66 4 29.32 4 30 4 C29 7 29 7 27 9 C27.66 9.33 28.32 9.66 29 10 C29 10.66 29 11.32 29 12 C29.928125 12.0825 30.85625 12.165 31.8125 12.25 C35.08591528 12.69077671 37.72377471 13.69697632 40.75 15 C46.84302839 17.35258596 52.72992574 17.54765989 59.18652344 17.671875 C64.15259395 17.78693497 68.28061871 18.42266668 73 20 C73 20.33 73 20.66 73 21 C70.03 21.33 67.06 21.66 64 22 C63.505 23.485 63.505 23.485 63 25 C58.38 25 53.76 25 49 25 C49.66 26.32 50.32 27.64 51 29 C51.0777346 31.33203812 51.08967728 33.66839059 51 36 C49.68 35.67 48.36 35.34 47 35 C46.34 39.62 45.68 44.24 45 49 C43.329375 49.4125 41.65875 49.825 39.9375 50.25 C35.05636296 51.56803313 31.23603509 53.27011072 27 56 C20.75086505 46.1799308 20.75086505 46.1799308 21.25 41.8125 C21.77088367 40.5536978 22.31428914 39.30407405 22.875 38.0625 C22.91625 37.381875 22.9575 36.70125 23 36 C21.35570171 34.31126121 19.68615782 32.64694485 18 31 C16.42143216 27.31667504 16 25.04306781 16 21 C20.75 21.875 20.75 21.875 23 23 C24.34245892 20.31508215 24.02549373 17.9149467 23.9375 14.97265625 C24 13 24 13 25 10 C23.68 10.33 22.36 10.66 21 11 C21.33 13.31 21.66 15.62 22 18 C19 18 19 18 17 17 C17 16.34 17 15.68 17 15 C15.68 14.34 14.36 13.68 13 13 C14.32 12.34 15.64 11.68 17 11 C13.37 9.02 9.74 7.04 6 5 C6 6.65 6 8.3 6 10 C3.53199953 8.84826645 1.95216435 7.95216435 0 6 C0 5.01 0 4.02 0 3 C-0.66 2.67 -1.32 2.34 -2 2 C-1.34 2 -0.68 2 0 2 C0 1.34 0 0.68 0 0 Z " fill="#272727" transform="translate(17,119)"/>
<path d="M0 0 C5.94 0 11.88 0 18 0 C20.18697771 8.15146238 21.44025708 15.98213516 22.1875 24.375 C22.27112793 25.31359863 22.35475586 26.25219727 22.44091797 27.21923828 C22.85043295 32.1642418 23.08883961 37.03864964 23 42 C11 49 11 49 5 51 C4.34 54.3 3.68 57.6 3 61 C1.515 61.495 1.515 61.495 0 62 C0 41.54 0 21.08 0 0 Z " fill="#E4E4E4" transform="translate(0,1)"/>
<path d="M0 0 C5.445 1.485 5.445 1.485 11 3 C9.70316761 7.2084705 8.07672007 10.93422527 6 14.8125 C2.03813931 22.64925371 -0.49124912 31.116645 1 40 C2.423073 41.78433833 2.423073 41.78433833 4 43 C3.505 43.763125 3.01 44.52625 2.5 45.3125 C0.75631692 47.92363751 0.75631692 47.92363751 1 51 C3.88132226 52.63464311 5.9595969 53.25532585 9.265625 53.265625 C10.07386719 53.26820312 10.88210938 53.27078125 11.71484375 53.2734375 C12.55144531 53.26570313 13.38804688 53.25796875 14.25 53.25 C15.07113281 53.25773437 15.89226563 53.26546875 16.73828125 53.2734375 C22.16457234 53.25623848 26.77624902 52.4459617 32 51 C33.66627298 50.96377667 35.33405374 50.95100158 37 51 C37.66 50.67 38.32 50.34 39 50 C38.67 51.65 38.34 53.3 38 55 C40.31 55.33 42.62 55.66 45 56 C45.495 57.98 45.495 57.98 46 60 C45.34 60 44.68 60 44 60 C43.73067479 64.65052872 43.73067479 64.65052872 45 69 C44.01 69 43.02 69 42 69 C42 68.34 42 67.68 42 67 C41.01 66.67 40.02 66.34 39 66 C40.32 64.35 41.64 62.7 43 61 C42.175 61.825 41.35 62.65 40.5 63.5 C37.53516261 65.92325117 35.09582935 66.79392606 31.15625 66.57421875 C27.58304413 65.62265849 24.88880541 63.53621936 21.98046875 61.3125 C19.97920134 59.72378917 19.97920134 59.72378917 17 60 C16.67 61.32 16.34 62.64 16 64 C15.54625 63.175 15.0925 62.35 14.625 61.5 C14.08875 60.675 13.5525 59.85 13 59 C12.34 59 11.68 59 11 59 C11 62.3 11 65.6 11 69 C8.87465341 68.85930804 6.74972471 68.71229079 4.625 68.5625 C2.84996094 68.44068359 2.84996094 68.44068359 1.0390625 68.31640625 C-2 68 -2 68 -4 67 C-4.09270775 58.85496178 -4.16376823 50.71014423 -4.20724869 42.56470871 C-4.22811795 38.78237005 -4.25642248 35.00039253 -4.30175781 31.21826172 C-4.34524074 27.56779688 -4.36914209 23.91767924 -4.37950897 20.2669754 C-4.3868961 18.87468246 -4.40132175 17.48240838 -4.42292023 16.09026337 C-4.45198041 14.13946589 -4.45363412 12.18831854 -4.45410156 10.23730469 C-4.46298401 9.1269989 -4.47186646 8.01669312 -4.48101807 6.8727417 C-4 4 -4 4 0 0 Z " fill="#4A4A4B" transform="translate(4,62)"/>
<path d="M0 0 C-0.69671814 8.36061771 -3.72953671 14.42625486 -10 20 C-9.34 22.31 -8.68 24.62 -8 27 C-6.35 26.67 -4.7 26.34 -3 26 C-3.0928125 27.60875 -3.0928125 27.60875 -3.1875 29.25 C-3.36108072 32.89665716 -3.36108072 32.89665716 -1.5625 34.875 C0.86832613 38.18092353 0.97024239 41.96040379 1 46 C0.67 46.99 0.34 47.98 0 49 C1.26283568 51.45024706 1.26283568 51.45024706 3 54.0625 C5.82950533 59.01905806 6.61482457 62.22172884 5.6328125 67.828125 C4.83823986 70.55517678 3.72771861 72.74645399 2 75 C1.67 74.34 1.34 73.68 1 73 C1.4640625 71.88625 1.4640625 71.88625 1.9375 70.75 C3.54615849 66.58641332 3.81521162 63.84430006 1.97265625 59.67578125 C-1.62717653 53.16417236 -6.2097878 48.60643548 -12 44 C-14.81782144 45.10033774 -17.48781796 46.24869151 -20.1875 47.625 C-23 49 -23 49 -25 49 C-25.33 49.99 -25.66 50.98 -26 52 C-28.0625 52.6875 -28.0625 52.6875 -30 53 C-30.061875 53.66 -30.12375 54.32 -30.1875 55 C-31.33874884 59.25076495 -32.70529967 62.96385238 -36 66 C-39.42901363 66.68685135 -42.55143821 66.48212903 -46 66 C-45.54363464 64.603522 -45.08480512 63.2078492 -44.625 61.8125 C-44.36976562 61.03519531 -44.11453125 60.25789063 -43.8515625 59.45703125 C-43.57054688 58.64621094 -43.28953125 57.83539063 -43 57 C-42.74347656 56.1028125 -42.48695312 55.205625 -42.22265625 54.28125 C-41 52 -41 52 -38.70703125 51.13671875 C-37.75183594 50.98847656 -36.79664062 50.84023437 -35.8125 50.6875 C-26.1163085 48.6172637 -15.01329662 43.89083028 -9.0078125 35.67578125 C-7.50764227 33.18131215 -6.16993687 30.6648562 -5 28 C-8.96 28.495 -8.96 28.495 -13 29 C-12.01 28.67 -11.02 28.34 -10 28 C-10.66 26.35 -11.32 24.7 -12 23 C-16.95 25.475 -16.95 25.475 -22 28 C-19.36 28.33 -16.72 28.66 -14 29 C-14 29.33 -14 29.66 -14 30 C-18.85753045 31.29534145 -24.0084132 31.49915868 -29 31 C-29.99 30.34 -30.98 29.68 -32 29 C-30.04414675 27.99515796 -28.08523763 26.99626195 -26.125 26 C-25.03445312 25.443125 -23.94390625 24.88625 -22.8203125 24.3125 C-20 23 -20 23 -18 23 C-18 22.34 -18 21.68 -18 21 C-16.989375 20.505 -15.97875 20.01 -14.9375 19.5 C-10.4119473 16.92320571 -6.90991718 13.30738501 -4 9 C-4 8.01 -4 7.02 -4 6 C-5.98 6.99 -7.96 7.98 -10 9 C-10 8.34 -10 7.68 -10 7 C-10.66 6.67 -11.32 6.34 -12 6 C-9.56432406 3.05155018 -7.69236434 2.64616376 -4 2 C-1 0 -1 0 0 0 Z " fill="#34342B" transform="translate(149,42)"/>
<path d="M0 0 C1.65 0 3.3 0 5 0 C5 0.66 5 1.32 5 2 C4.34 2 3.68 2 3 2 C3.474375 2.556875 3.94875 3.11375 4.4375 3.6875 C6.12395996 6.18346074 6.58953107 8.0446237 7 11 C7 10.34 7 9.68 7 9 C8.3921875 9.495 8.3921875 9.495 9.8125 10 C13.18427987 11.05781329 14.95017788 11.47991868 18.1875 10 C18.785625 9.67 19.38375 9.34 20 9 C20.67408308 10.26691507 21.33900497 11.53870749 22 12.8125 C22.556875 13.87404297 22.556875 13.87404297 23.125 14.95703125 C24 17 24 17 24 20 C22.35 19.67 20.7 19.34 19 19 C18.90912109 20.01320312 18.90912109 20.01320312 18.81640625 21.046875 C18.73261719 21.93890625 18.64882813 22.8309375 18.5625 23.75 C18.48128906 24.63171875 18.40007813 25.5134375 18.31640625 26.421875 C17.73694925 31.14337647 17.73694925 31.14337647 17 33 C15.2578125 34.046875 15.2578125 34.046875 13.125 34.75 C12.42632812 34.99234375 11.72765625 35.2346875 11.0078125 35.484375 C9 36 9 36 6 36 C5.34 35.34 4.68 34.68 4 34 C1.39719432 34.32041397 1.39719432 34.32041397 -1 35 C-2.51516221 31.96967558 -2.17028053 29.34885038 -2 26 C-1 23.0625 -1 23.0625 0 21 C-0.763125 20.773125 -1.52625 20.54625 -2.3125 20.3125 C-5.65829589 18.67850666 -6.53342986 17.3962677 -8 14 C-8.1875 10.6875 -8.1875 10.6875 -8 8 C-7.01 8.33 -6.02 8.66 -5 9 C-5 9.99 -5 10.98 -5 12 C-3.68 11.67 -2.36 11.34 -1 11 C-0.12132271 7.26562152 0.08912219 3.83225427 0 0 Z " fill="#E3E3E3" transform="translate(43,133)"/>
<path d="M0 0 C0.66 0 1.32 0 2 0 C2.125 6.75 2.125 6.75 1 9 C1.66 9 2.32 9 3 9 C3.144375 9.928125 3.28875 10.85625 3.4375 11.8125 C4.61012195 15.0897764 4.61012195 15.0897764 6.9609375 15.8203125 C7.73695312 16.02398437 8.51296875 16.22765625 9.3125 16.4375 C13.74370528 17.659655 15.81457773 19.16867509 18.1796875 23.11328125 C19.61871159 26.42303666 19.68458812 28.45258885 19 32 C16.92800111 35.52050876 14.72119959 39.1394002 11 41 C9.45976004 41.06950541 7.91665012 41.08452357 6.375 41.0625 C5.14910156 41.04896484 5.14910156 41.04896484 3.8984375 41.03515625 C3.27195312 41.02355469 2.64546875 41.01195312 2 41 C-1.50454574 34.98824959 -0.38670401 27.58684402 1 21 C-0.65 20.67 -2.3 20.34 -4 20 C-4.33358143 13.10598384 -3.47557267 7.46470791 -1 1 C-0.67 0.67 -0.34 0.34 0 0 Z " fill="#2B2A27" transform="translate(54,69)"/>
<path d="M0 0 C0.40347656 0.62390625 0.80695313 1.2478125 1.22265625 1.890625 C1.7640625 2.59058594 2.30546875 3.29054687 2.86328125 4.01171875 C3.394375 4.77613281 3.92546875 5.54054687 4.47265625 6.328125 C5.28476563 7.47087891 5.28476563 7.47087891 6.11328125 8.63671875 C7.22265625 10.890625 7.22265625 10.890625 7.13671875 12.9453125 C5.95380467 15.46279631 4.46850247 16.78744715 2.34765625 18.578125 C1.64898437 19.18011719 0.9503125 19.78210938 0.23046875 20.40234375 C-3.10116724 22.87190272 -5.86868227 23.01148431 -9.8828125 22.98828125 C-10.86572266 22.98505859 -11.84863281 22.98183594 -12.86132812 22.97851562 C-13.88548828 22.97013672 -14.90964844 22.96175781 -15.96484375 22.953125 C-17.00060547 22.94861328 -18.03636719 22.94410156 -19.10351562 22.93945312 C-21.66151641 22.9276651 -24.21940108 22.91121015 -26.77734375 22.890625 C-25.26604685 18.92263842 -23.7703606 15.96915661 -20.77734375 12.890625 C-18.02734375 12.078125 -18.02734375 12.078125 -15.77734375 11.890625 C-16.10734375 8.920625 -16.43734375 5.950625 -16.77734375 2.890625 C-14.34469757 2.13958663 -11.90904967 1.41461561 -9.46484375 0.703125 C-8.77455078 0.48720703 -8.08425781 0.27128906 -7.37304688 0.04882812 C-2.25766429 -1.40917947 -2.25766429 -1.40917947 0 0 Z " fill="#EEEA90" transform="translate(111.77734375,156.109375)"/>
<path d="M0 0 C1.134375 0.020625 2.26875 0.04125 3.4375 0.0625 C2.89408377 3.97509689 1.77170118 5.95023176 -0.5625 9.0625 C-1.27683121 11.71184822 -1.27683121 11.71184822 -1.5625 14.0625 C-0.53125 14.145 0.5 14.2275 1.5625 14.3125 C5.96725387 15.16503301 7.92262937 16.40491489 11.4375 19.0625 C11.1075 19.7225 10.7775 20.3825 10.4375 21.0625 C9.4475 20.7325 8.4575 20.4025 7.4375 20.0625 C6.633125 20.866875 5.82875 21.67125 5 22.5 C3.8125 23.6875 2.625 24.875 1.4375 26.0625 C1.20386119 27.91141946 1.02446365 29.76738031 0.875 31.625 C0.79121094 32.63691406 0.70742187 33.64882812 0.62109375 34.69140625 C0.53021484 35.86509766 0.53021484 35.86509766 0.4375 37.0625 C1.7575 37.0625 3.0775 37.0625 4.4375 37.0625 C4.7675 39.0425 5.0975 41.0225 5.4375 43.0625 C6.30375 42.5675 7.17 42.0725 8.0625 41.5625 C11.7955201 39.90337995 13.43411437 39.26182287 17.4375 40.0625 C20.36107155 42.14395583 22.97299633 44.45412937 25.4375 47.0625 C25.4375 47.3925 25.4375 47.7225 25.4375 48.0625 C15.5375 48.0625 5.6375 48.0625 -4.5625 48.0625 C-4.58540404 41.38724596 -4.60533264 34.7121272 -4.61743164 28.03686523 C-4.62247325 25.76407409 -4.62930637 23.4912862 -4.63793945 21.21850586 C-4.65001261 17.95946449 -4.65572987 14.70046583 -4.66015625 11.44140625 C-4.66531754 10.41849991 -4.67047882 9.39559357 -4.67579651 8.34169006 C-4.67587204 7.40079025 -4.67594757 6.45989044 -4.67602539 5.49047852 C-4.678246 4.65774918 -4.68046661 3.82501984 -4.68275452 2.96705627 C-4.46382086 -0.50035163 -3.59468221 0.0630646 0 0 Z " fill="#282828" transform="translate(4.5625,131.9375)"/>
<path d="M0 0 C0.39872314 0.65194336 0.79744629 1.30388672 1.20825195 1.97558594 C2.80451991 4.18546317 2.80451991 4.18546317 5.17651367 4.45410156 C5.99869385 4.4331543 6.82087402 4.41220703 7.66796875 4.390625 C9.00698242 4.37128906 9.00698242 4.37128906 10.37304688 4.3515625 C11.30181641 4.31804688 12.23058594 4.28453125 13.1875 4.25 C14.12787109 4.23195313 15.06824219 4.21390625 16.03710938 4.1953125 C18.35909889 4.1481655 20.6790369 4.08238231 23 4 C22.34 4.66 21.68 5.32 21 6 C20.01 5.67 19.02 5.34 18 5 C17.67 5.99 17.34 6.98 17 8 C14.9375 8.6875 14.9375 8.6875 13 9 C13 9.66 13 10.32 13 11 C14.32 11.33 15.64 11.66 17 12 C16.25105469 12.19207031 15.50210937 12.38414063 14.73046875 12.58203125 C11.0790425 14.47826548 9.95428444 17.0935254 8.3125 20.6875 C8.01794922 21.28755859 7.72339844 21.88761719 7.41992188 22.50585938 C4.7657695 28.058704 2.69284499 33.60131722 2.8125 39.8125 C2.81894531 40.56144531 2.82539062 41.31039062 2.83203125 42.08203125 C2.88900923 44.08424878 2.88900923 44.08424878 4 46 C6.31 46 8.62 46 11 46 C10.34902344 45.48050781 9.69804687 44.96101563 9.02734375 44.42578125 C5.69243747 40.43545986 6.52667077 36.42104927 6.671875 31.421875 C7.07813426 27.18517126 7.8910993 24.67104937 10 21 C10.53625 20.030625 11.0725 19.06125 11.625 18.0625 C12.07875 17.381875 12.5325 16.70125 13 16 C13.33 16 13.66 16 14 16 C14.38408795 25.48839486 13.55403863 33.84802826 11 43 C13.90092502 44.93395001 14.89674737 45.30131941 18.1875 45.625 C20.0746875 45.810625 20.0746875 45.810625 22 46 C22 46.33 22 46.66 22 47 C20.43883181 47.33951619 18.87598662 47.67132544 17.3125 48 C16.44238281 48.185625 15.57226562 48.37125 14.67578125 48.5625 C12.06287036 48.98972047 9.64186962 49.07616201 7 49 C6.731875 49.598125 6.46375 50.19625 6.1875 50.8125 C5.01506533 52.97224808 3.80630718 54.35790256 2 56 C1.34 55.67 0.68 55.34 0 55 C0.99 53.68 1.98 52.36 3 51 C2.51144531 50.60039063 2.02289062 50.20078125 1.51953125 49.7890625 C-1.32229621 46.44315767 -0.32466159 42.1654694 0 38 C0.76386791 28.90148441 5.82955497 20.92842847 10 13 C10.33 12.34 10.66 11.68 11 11 C9.7625 10.835 8.525 10.67 7.25 10.5 C6.55390625 10.4071875 5.8578125 10.314375 5.140625 10.21875 C1.15996282 9.811967 -0.60549568 9.73699712 -4 12 C-4 11.01 -4 10.02 -4 9 C-3.34 8.67 -2.68 8.34 -2 8 C-1.62599214 5.67284 -1.29235267 3.33882138 -1 1 C-0.67 0.67 -0.34 0.34 0 0 Z " fill="#414145" transform="translate(4,54)"/>
<path d="M0 0 C4.52532262 1.50844087 6.70844662 4.90903894 9 9 C8.875 12 8.875 12 8 14 C8.99 14.33 9.98 14.66 11 15 C10.67 17.31 10.34 19.62 10 22 C29.14 22 48.28 22 68 22 C68 22.33 68 22.66 68 23 C18.5 23 -31 23 -82 23 C-82 22.67 -82 22.34 -82 22 C-80.02 22 -78.04 22 -76 22 C-75.67 21.34 -75.34 20.68 -75 20 C-75 20.66 -75 21.32 -75 22 C-68.4 22 -61.8 22 -55 22 C-55 21.34 -55 20.68 -55 20 C-53.9275 20.165 -52.855 20.33 -51.75 20.5 C-47.96971248 21.08810915 -47.96971248 21.08810915 -44 21 C-41.66365343 21.31151288 -39.32961443 21.64159778 -37 22 C-37 21.0925 -37 20.185 -37 19.25 C-36 16 -36 16 -34.29296875 14.7109375 C-30.53324128 12.77178307 -28.33209794 12 -24 12 C-24.309375 12.53625 -24.61875 13.0725 -24.9375 13.625 C-26.17781001 16.39745767 -26.54502887 19.0078475 -27 22 C-23.45742654 21.91864935 -19.9165153 21.80584824 -16.375 21.6875 C-14.87646484 21.65366211 -14.87646484 21.65366211 -13.34765625 21.61914062 C-6.18860778 21.35838058 -1.73554813 20.21171976 3.9375 15.625 C6.21564962 13.2439396 6.21564962 13.2439396 6.125 10.625 C4.80783056 7.55160465 3.08833827 5.09811785 1.05859375 2.453125 C0 1 0 1 0 0 Z " fill="#484741" transform="translate(112,157)"/>
<path d="M0 0 C5.445 1.485 5.445 1.485 11 3 C9.70316761 7.2084705 8.07672007 10.93422527 6 14.8125 C2.03813931 22.64925371 -0.49124912 31.116645 1 40 C2.423073 41.78433833 2.423073 41.78433833 4 43 C1.52187506 46.45167403 0.20393865 48.23163306 -4 49 C-4.10141463 42.66468985 -4.17147114 36.32958898 -4.21972656 29.99365234 C-4.23984276 27.83829933 -4.26713925 25.68300089 -4.30175781 23.52783203 C-4.35027486 20.42987605 -4.37296873 17.33264154 -4.390625 14.234375 C-4.41127014 13.27070007 -4.43191528 12.30702515 -4.45318604 11.31414795 C-4.45348816 10.41351624 -4.45379028 9.51288452 -4.45410156 8.58496094 C-4.46298401 7.79442322 -4.47186646 7.0038855 -4.48101807 6.18939209 C-4 4 -4 4 0 0 Z " fill="#E3E3E3" transform="translate(4,62)"/>
<path d="M0 0 C2.35448675 -0.05454409 4.70767875 -0.0939279 7.0625 -0.125 C9.02896484 -0.15980469 9.02896484 -0.15980469 11.03515625 -0.1953125 C15.11824299 0.00582478 18.14999053 0.72834538 22 2 C22 2.33 22 2.66 22 3 C17.545 3.495 17.545 3.495 13 4 C12.67 4.99 12.34 5.98 12 7 C7.38 7 2.76 7 -2 7 C-1.34 8.32 -0.68 9.64 0 11 C0.0777346 13.33203812 0.08967728 15.66839059 0 18 C-1.32 17.67 -2.64 17.34 -4 17 C-4.66 21.62 -5.32 26.24 -6 31 C-7.670625 31.4125 -9.34125 31.825 -11.0625 32.25 C-15.94363704 33.56803313 -19.76396491 35.27011072 -24 38 C-30.24913495 28.1799308 -30.24913495 28.1799308 -29.75 23.8125 C-29.22911633 22.5536978 -28.68571086 21.30407405 -28.125 20.0625 C-28.08375 19.381875 -28.0425 18.70125 -28 18 C-29.64429829 16.31126121 -31.31384218 14.64694485 -33 13 C-34.57856784 9.31667504 -35 7.04306781 -35 3 C-32.525 3.495 -32.525 3.495 -30 4 C-30.99 4.495 -30.99 4.495 -32 5 C-31.630322 10.09574068 -31.630322 10.09574068 -29.0625 14.375 C-27.09868733 16.03492866 -27.09868733 16.03492866 -25 17 C-25.165 17.639375 -25.33 18.27875 -25.5 18.9375 C-26.15932515 22.97586652 -26.08003779 26.91807258 -26 31 C-24.02 30.34 -22.04 29.68 -20 29 C-19.67 29.99 -19.34 30.98 -19 32 C-18.45730469 31.7834375 -17.91460937 31.566875 -17.35546875 31.34375 C-16.28232422 30.92609375 -16.28232422 30.92609375 -15.1875 30.5 C-14.47980469 30.2215625 -13.77210937 29.943125 -13.04296875 29.65625 C-11 29 -11 29 -8 29 C-7.90912109 28.11248047 -7.90912109 28.11248047 -7.81640625 27.20703125 C-7.37987629 23.09021792 -6.91328654 19.04455467 -6 15 C-3.525 15.495 -3.525 15.495 -1 16 C-1.30035156 15.40832031 -1.60070312 14.81664062 -1.91015625 14.20703125 C-5.05488851 7.67238422 -5.05488851 7.67238422 -4.75 3.9375 C-4.5025 3.298125 -4.255 2.65875 -4 2 C-2.515 2.495 -2.515 2.495 -1 3 C1.14255793 2.61067144 1.14255793 2.61067144 3 2 C2.01 1.34 1.02 0.68 0 0 Z " fill="#4C4C4C" transform="translate(68,137)"/>
<path d="M0 0 C23.76 0 47.52 0 72 0 C72 0.33 72 0.66 72 1 C50.55 1 29.1 1 7 1 C7.33 6.94 7.66 12.88 8 19 C8.25898829 30.05016722 8.25898829 30.05016722 8 33 C7.34 33.66 6.68 34.32 6 35 C4 32 4 32 3.5 28.375 C3.335 27.26125 3.17 26.1475 3 25 C2.34 24.67 1.68 24.34 1 24 C1.165 23.236875 1.33 22.47375 1.5 21.6875 C2.09145396 18.96403764 2.09145396 18.96403764 2 16 C1.34 15.67 0.68 15.34 0 15 C-0.44921875 12.890625 -0.44921875 12.890625 -0.6875 10.25 C-0.77386719 9.38890625 -0.86023438 8.5278125 -0.94921875 7.640625 C-1 5 -1 5 0 0 Z " fill="#13131B" transform="translate(108,0)"/>
<path d="M0 0 C4.27056661 1.74949682 5.36216132 3.90850221 7.25 7.95703125 C8.14686826 10.40006301 8.32251441 12.4198847 8 15 C9.32 14.67 10.64 14.34 12 14 C11.67 14.66 11.34 15.32 11 16 C9.35 16 7.7 16 6 16 C5.505 12.535 5.505 12.535 5 9 C4.90525391 9.94359375 4.90525391 9.94359375 4.80859375 10.90625 C3.78508887 18.06001045 1.35494733 22.17822924 -4 27 C-8.32106523 30.11518656 -12.05107064 31.1353495 -17.328125 31.09765625 C-18.12734375 31.09443359 -18.9265625 31.09121094 -19.75 31.08789062 C-20.575 31.07951172 -21.4 31.07113281 -22.25 31.0625 C-23.09046875 31.05798828 -23.9309375 31.05347656 -24.796875 31.04882812 C-26.86461401 31.03707961 -28.93231624 31.01914522 -31 31 C-31.66 29.35 -32.32 27.7 -33 26 C-31.35 25.67 -29.7 25.34 -28 25 C-28.33 23.68 -28.66 22.36 -29 21 C-28.27683594 20.54560547 -28.27683594 20.54560547 -27.5390625 20.08203125 C-23.63056363 17.48965955 -21.22248629 15.75411335 -20 11 C-20.7425 10.9175 -21.485 10.835 -22.25 10.75 C-25 10 -25 10 -29 6 C-24.05 6 -19.1 6 -14 6 C-15 9 -15 9 -17 10 C-17.2475 10.804375 -17.495 11.60875 -17.75 12.4375 C-19.72329109 18.0613796 -22.75840646 23.75840646 -27 28 C-24.39576408 28.02697137 -21.79180756 28.04682489 -19.1875 28.0625 C-18.44951172 28.07087891 -17.71152344 28.07925781 -16.95117188 28.08789062 C-13.70077932 28.10259828 -11.10595105 28.03531702 -8 27 C-8.99 26.67 -9.98 26.34 -11 26 C-11 25.34 -11 24.68 -11 24 C-9.948125 23.95875 -8.89625 23.9175 -7.8125 23.875 C-4.07697344 23.01766604 -2.18033057 22.25265749 0.12890625 19.1484375 C2.45651052 13.40770948 1.74410759 5.86134519 0 0 Z " fill="#383839" transform="translate(134,108)"/>
<path d="M0 0 C1.98 0 3.96 0 6 0 C6 3.3 6 6.6 6 10 C6.763125 10.20625 7.52625 10.4125 8.3125 10.625 C11.82229103 12.42070704 12.52599781 14.43136312 14 18 C12.68 18 11.36 18 10 18 C10 18.66 10 19.32 10 20 C3.4 20 -3.2 20 -10 20 C-8.27627284 15.69068211 -7.15529175 13.24544295 -4 10 C-1.25 9.1875 -1.25 9.1875 1 9 C0.67 6.03 0.34 3.06 0 0 Z " fill="#FBF58F" transform="translate(95,159)"/>
<path d="M0 0 C2.10627046 3.07839528 2.3421537 5.69799816 2.625 9.375 C0.23935923 8.79915568 -2.04182784 8.15272405 -4.375 7.375 C-4.56835938 8.00148438 -4.76171875 8.62796875 -4.9609375 9.2734375 C-5.22132812 10.09070313 -5.48171875 10.90796875 -5.75 11.75 C-6.00523438 12.56210938 -6.26046875 13.37421875 -6.5234375 14.2109375 C-7.375 16.375 -7.375 16.375 -9.375 18.375 C-12.91071429 17.83928571 -12.91071429 17.83928571 -14.375 16.375 C-14.72068689 10.97618412 -14.49082647 5.67517571 -13.375 0.375 C-14.695 0.045 -16.015 -0.285 -17.375 -0.625 C-13.40033698 -4.59966302 -4.12319278 -2.8211319 0 0 Z " fill="#EEE98F" transform="translate(68.375,89.625)"/>
<path d="M0 0 C-0.69671814 8.36061771 -3.72953671 14.42625486 -10 20 C-9.34 22.31 -8.68 24.62 -8 27 C-6.35 26.67 -4.7 26.34 -3 26 C-3.33 28.31 -3.66 30.62 -4 33 C-4.66 32.67 -5.32 32.34 -6 32 C-5.67 30.68 -5.34 29.36 -5 28 C-8.96 28.495 -8.96 28.495 -13 29 C-12.01 28.67 -11.02 28.34 -10 28 C-10.66 26.35 -11.32 24.7 -12 23 C-16.95 25.475 -16.95 25.475 -22 28 C-19.36 28.33 -16.72 28.66 -14 29 C-14 29.33 -14 29.66 -14 30 C-18.85753045 31.29534145 -24.0084132 31.49915868 -29 31 C-29.99 30.34 -30.98 29.68 -32 29 C-30.04414675 27.99515796 -28.08523763 26.99626195 -26.125 26 C-25.03445312 25.443125 -23.94390625 24.88625 -22.8203125 24.3125 C-20 23 -20 23 -18 23 C-18 22.34 -18 21.68 -18 21 C-16.989375 20.505 -15.97875 20.01 -14.9375 19.5 C-10.4119473 16.92320571 -6.90991718 13.30738501 -4 9 C-4 8.01 -4 7.02 -4 6 C-5.98 6.99 -7.96 7.98 -10 9 C-10 8.34 -10 7.68 -10 7 C-10.66 6.67 -11.32 6.34 -12 6 C-9.56432406 3.05155018 -7.69236434 2.64616376 -4 2 C-1 0 -1 0 0 0 Z " fill="#363637" transform="translate(149,42)"/>
<path d="M0 0 C1.875 1.375 1.875 1.375 3 3 C3 3.66 3 4.32 3 5 C4.32 5 5.64 5 7 5 C6.62120265 7.19702465 6.09789619 8.83875922 4.9375 10.75 C2.43259477 12.36606789 0.21243607 12.58571911 -2.73828125 12.50390625 C-6.41413639 11.68493334 -9.06480263 9.57169073 -12.01953125 7.3125 C-14.02079866 5.72378917 -14.02079866 5.72378917 -17 6 C-17.33 7.32 -17.66 8.64 -18 10 C-20 7 -20 7 -20 3 C-14.72 3 -9.44 3 -4 3 C-5.32 2.34 -6.64 1.68 -8 1 C-5.20129973 -0.39935013 -3.09501208 -0.25265405 0 0 Z " fill="#E0E0DF" transform="translate(38,116)"/>
<path d="M0 0 C5.61 0 11.22 0 17 0 C17.33 0.66 17.66 1.32 18 2 C16.906875 2.12375 15.81375 2.2475 14.6875 2.375 C12.70104032 2.82840394 12.70104032 2.82840394 11 4 C9.82938266 6.44805907 9.23708692 8.80534178 8.62109375 11.4453125 C7.86300736 14.56347915 6.54726667 17.20018411 5 20 C3.35 19.67 1.7 19.34 0 19 C0 12.73 0 6.46 0 0 Z " fill="#F7F193" transform="translate(98,89)"/>
<path d="M0 0 C-0.29296875 1.87109375 -0.29296875 1.87109375 -1 4 C-7.83104472 8.253292 -16.70029099 11.93160362 -24.75 10.1875 C-25.4925 9.795625 -26.235 9.40375 -27 9 C-26.67 8.34 -26.34 7.68 -26 7 C-25.01 7 -24.02 7 -23 7 C-22.67 6.34 -22.34 5.68 -22 5 C-22 5.66 -22 6.32 -22 7 C-21.34 7 -20.68 7 -20 7 C-20 5.68 -20 4.36 -20 3 C-20.99 2.67 -21.98 2.34 -23 2 C-19.22137741 0.74045914 -15.43592197 0.34152831 -11.5 -0.125 C-10.72785156 -0.22425781 -9.95570313 -0.32351562 -9.16015625 -0.42578125 C-5.7301596 -0.83595416 -3.31742968 -1.10580989 0 0 Z " fill="#1F1E29" transform="translate(139,49)"/>
<path d="M0 0 C0.309375 0.639375 0.61875 1.27875 0.9375 1.9375 C1.8345163 3.93610821 1.8345163 3.93610821 3 5 C3.33 4.01 3.66 3.02 4 2 C7.16532398 2.60925484 9.1548769 3.68049957 11.75 5.5625 C16.1261508 8.3710744 18.85193157 8.77221026 24 8 C26.37719693 6.12498069 26.37719693 6.12498069 28 4 C28.66 4 29.32 4 30 4 C29 7 29 7 27 9 C27.66 9.33 28.32 9.66 29 10 C29 11.32 29 12.64 29 14 C28.01 14 27.02 14 26 14 C26.20625 15.0725 26.4125 16.145 26.625 17.25 C27.13559322 22.3559322 27.13559322 22.3559322 25 25 C22.875 25.75 22.875 25.75 21 26 C22 23 22 23 24 21 C24.03188702 18.9911178 24.05895058 16.97993744 23.97265625 14.97265625 C24 13 24 13 25 10 C23.68 10.33 22.36 10.66 21 11 C21.33 13.31 21.66 15.62 22 18 C19 18 19 18 17 17 C17 16.34 17 15.68 17 15 C15.68 14.34 14.36 13.68 13 13 C14.32 12.34 15.64 11.68 17 11 C13.37 9.02 9.74 7.04 6 5 C6 6.65 6 8.3 6 10 C3.53199953 8.84826645 1.95216435 7.95216435 0 6 C0 5.01 0 4.02 0 3 C-0.66 2.67 -1.32 2.34 -2 2 C-1.34 2 -0.68 2 0 2 C0 1.34 0 0.68 0 0 Z " fill="#343433" transform="translate(17,119)"/>
<path d="M0 0 C0.33 0 0.66 0 1 0 C1.38408795 9.48839486 0.55403863 17.84802826 -2 27 C0.90092502 28.93395001 1.89674737 29.30131941 5.1875 29.625 C6.445625 29.74875 7.70375 29.8725 9 30 C9 30.33 9 30.66 9 31 C-1.37357631 33.48063781 -1.37357631 33.48063781 -7 32 C-7 31.67 -7 31.34 -7 31 C-5.35 30.67 -3.7 30.34 -2 30 C-2.65097656 29.48050781 -3.30195313 28.96101563 -3.97265625 28.42578125 C-7.30756253 24.43545986 -6.47332923 20.42104927 -6.328125 15.421875 C-5.92186574 11.18517126 -5.1089007 8.67104937 -3 5 C-2.46375 4.030625 -1.9275 3.06125 -1.375 2.0625 C-0.694375 1.0415625 -0.694375 1.0415625 0 0 Z " fill="#454547" transform="translate(17,70)"/>
<path d="M0 0 C0.81210937 0.41378906 0.81210937 0.41378906 1.640625 0.8359375 C4.31904312 2.15740869 7.02885041 3.39400376 9.75 4.625 C11.22726562 5.29402344 11.22726562 5.29402344 12.734375 5.9765625 C13.85585938 6.48316406 13.85585938 6.48316406 15 7 C14.34 9.97 13.68 12.94 13 16 C11.39431334 15.71682074 9.79047953 15.42312209 8.1875 15.125 C7.29417969 14.96257812 6.40085937 14.80015625 5.48046875 14.6328125 C3 14 3 14 0 12 C-0.29296875 9.1796875 -0.29296875 9.1796875 -0.1875 5.875 C-0.16042969 4.77929688 -0.13335938 3.68359375 -0.10546875 2.5546875 C-0.07066406 1.71164063 -0.03585937 0.86859375 0 0 Z " fill="#DEDEDE" transform="translate(0,112)"/>
<path d="M0 0 C3 1 3 1 4.5625 3 C5.81608001 5.61616697 6.35215725 7.45499017 6.875 10.25 C7.56343734 13.87177907 8.69860298 16.34183384 10.6875 19.4375 C13.25186963 23.75683646 13.38518167 26.84915889 12.59765625 31.7578125 C11.8560867 34.53991004 10.7505659 36.71665317 9 39 C8.67 38.34 8.34 37.68 8 37 C8.309375 36.2575 8.61875 35.515 8.9375 34.75 C10.21969417 31.43137979 10.48602059 29.54100716 10 26 C8.81687766 23.86873085 7.52159913 21.9048788 6.09375 19.9296875 C5 18 5 18 5 14 C2.70848923 11.37505218 2.70848923 11.37505218 0 9 C-1 8 -2 7 -3 6 C-2 4 -1 2 0 0 Z " fill="#343435" transform="translate(142,78)"/>
<path d="M0 0 C0.66 0 1.32 0 2 0 C2.125 6.75 2.125 6.75 1 9 C1.66 9 2.32 9 3 9 C3.268125 9.969375 3.53625 10.93875 3.8125 11.9375 C4.204375 12.948125 4.59625 13.95875 5 15 C5.99 15.33 6.98 15.66 8 16 C6.68 16.33 5.36 16.66 4 17 C4 17.66 4 18.32 4 19 C0.04 19.495 0.04 19.495 -4 20 C-4.33358143 13.10598384 -3.47557267 7.46470791 -1 1 C-0.67 0.67 -0.34 0.34 0 0 Z " fill="#242422" transform="translate(54,69)"/>
<path d="M0 0 C2.48722141 0.34306502 3.79568171 0.81838374 5.6875 2.5 C7.619207 6.1794419 7.7457321 9.89664218 8 14 C7.34 14 6.68 14 6 14 C5.566875 12.906875 5.13375 11.81375 4.6875 10.6875 C3.50504359 7.90591207 2.39199957 5.93638061 0 4 C-1.47158931 6.65915095 -1.47158931 6.65915095 -2 10 C0.35866736 13.50430579 2.4895579 15.65970527 6 18 C6 18.66 6 19.32 6 20 C3.00779732 18.63629701 0.70973471 17.05091917 -1.75 14.875 C-2.67039063 14.06675781 -2.67039063 14.06675781 -3.609375 13.2421875 C-4.06828125 12.83226563 -4.5271875 12.42234375 -5 12 C-7.8106156 13.07464714 -10.45129543 14.23467362 -13.125 15.625 C-16 17 -16 17 -19 17 C-19 16.34 -19 15.68 -19 15 C-18.20335938 14.64808594 -17.40671875 14.29617187 -16.5859375 13.93359375 C-9.26420342 10.52212884 -3.73187485 7.46374971 0 0 Z " fill="#323232" transform="translate(142,74)"/>
<path d="M0 0 C0.99 0 1.98 0 3 0 C3 1.32 3 2.64 3 4 C1.4221875 4.5878125 1.4221875 4.5878125 -0.1875 5.1875 C-3.13992276 6.4231216 -4.28028101 7.28695437 -6.625 9.6875 C-9 12 -9 12 -11.75 12.375 C-14 12 -14 12 -15 11 C-15.4375 8.6875 -15.4375 8.6875 -15 6 C-10.67444807 2.09645314 -7.66936782 1.78194739 -2 2 C-1.34 1.34 -0.68 0.68 0 0 Z " fill="#111116" transform="translate(20,46)"/>
<path d="M0 0 C2.35448675 -0.05454409 4.70767875 -0.0939279 7.0625 -0.125 C9.02896484 -0.15980469 9.02896484 -0.15980469 11.03515625 -0.1953125 C15.11824299 0.00582478 18.14999053 0.72834538 22 2 C22 2.33 22 2.66 22 3 C17.545 3.495 17.545 3.495 13 4 C12.67 4.99 12.34 5.98 12 7 C7.05 7 2.1 7 -3 7 C-3.66 5.68 -4.32 4.36 -5 3 C-3.68 3 -2.36 3 -1 3 C0.34164079 2.7018576 1.67851173 2.37756808 3 2 C2.01 1.34 1.02 0.68 0 0 Z " fill="#7A7A7A" transform="translate(68,137)"/>
<path d="M0 0 C4.95 0 9.9 0 15 0 C14 3 14 3 12 4 C11.7525 4.804375 11.505 5.60875 11.25 6.4375 C9.54102079 11.30809075 7.17560467 15.91130798 4 20 C3.01 20 2.02 20 1 20 C0.67 18.35 0.34 16.7 0 15 C0.48210937 14.69707031 0.96421875 14.39414063 1.4609375 14.08203125 C5.36943637 11.48965955 7.77751371 9.75411335 9 5 C8.2575 4.9175 7.515 4.835 6.75 4.75 C4 4 4 4 0 0 Z " fill="#2C2C2D" transform="translate(105,114)"/>
<path d="M0 0 C1.65 0 3.3 0 5 0 C5 0.66 5 1.32 5 2 C4.34 2 3.68 2 3 2 C3.474375 2.556875 3.94875 3.11375 4.4375 3.6875 C6.12395996 6.18346074 6.58953107 8.0446237 7 11 C7 10.34 7 9.68 7 9 C8.98 9.66 10.96 10.32 13 11 C12.01 11.495 12.01 11.495 11 12 C11 12.66 11 13.32 11 14 C9.3745692 13.85904936 7.74965949 13.71207913 6.125 13.5625 C5.22007813 13.48128906 4.31515625 13.40007812 3.3828125 13.31640625 C1 13 1 13 -1 12 C-0.835 11.13375 -0.67 10.2675 -0.5 9.375 C-0.02781452 6.18774801 0.07655118 3.21514973 0 0 Z " fill="#989898" transform="translate(43,133)"/>
<path d="M0 0 C1.32 0 2.64 0 4 0 C4.16789126 2.43742131 4.33436133 4.87492546 4.5 7.3125 C4.54769531 8.00279297 4.59539063 8.69308594 4.64453125 9.40429688 C4.83879489 12.27662359 5 15.12013788 5 18 C3.68 17.34 2.36 16.68 1 16 C1 15.34 1 14.68 1 14 C0.34 14 -0.32 14 -1 14 C-0.67 9.38 -0.34 4.76 0 0 Z " fill="#2A2927" transform="translate(50,91)"/>
<path d="M0 0 C0.33 0.66 0.66 1.32 1 2 C0.67 2.99 0.34 3.98 0 5 C2.31 5.33 4.62 5.66 7 6 C7.33 7.32 7.66 8.64 8 10 C7.34 10 6.68 10 6 10 C5.73067479 14.65052872 5.73067479 14.65052872 7 19 C6.01 19 5.02 19 4 19 C4 18.34 4 17.68 4 17 C3.01 16.67 2.02 16.34 1 16 C2.32 14.35 3.64 12.7 5 11 C4.34 11 3.68 11 3 11 C3 10.34 3 9.68 3 9 C1.68 9 0.36 9 -1 9 C-2.04115841 7.69855198 -3.03886134 6.36161311 -4 5 C-6.08334635 3.7483533 -6.08334635 3.7483533 -8 3 C-5.36 2.01 -2.72 1.02 0 0 Z " fill="#70706F" transform="translate(42,112)"/>
<path d="M0 0 C0.01417969 0.59167969 0.02835938 1.18335937 0.04296875 1.79296875 C0.31853725 6.35846843 0.53277932 8.44161431 3.5625 12.0625 C4.366875 12.701875 5.17125 13.34125 6 14 C4.54257537 14.08096803 3.08387193 14.13917774 1.625 14.1875 C0.81289062 14.22230469 0.00078125 14.25710937 -0.8359375 14.29296875 C-1.55007813 14.19628906 -2.26421875 14.09960938 -3 14 C-5.13586678 10.79619983 -5.23132175 9.98060033 -5.125 6.3125 C-5.10695313 5.50425781 -5.08890625 4.69601563 -5.0703125 3.86328125 C-5.04710937 3.24839844 -5.02390625 2.63351563 -5 2 C-1.125 0 -1.125 0 0 0 Z " fill="#DBDBDB" transform="translate(11,87)"/>
<path d="M0 0 C4.97963801 4.81900452 4.97963801 4.81900452 5.0625 9.625 C5.041875 10.73875 5.02125 11.8525 5 13 C3.68 12.67 2.36 12.34 1 12 C0.34 16.62 -0.32 21.24 -1 26 C-4.3 26.66 -7.6 27.32 -11 28 C-10.505 26.515 -10.505 26.515 -10 25 C-6.535 24.505 -6.535 24.505 -3 24 C-2.93941406 23.40832031 -2.87882812 22.81664062 -2.81640625 22.20703125 C-2.37987629 18.09021792 -1.91328654 14.04455467 -1 10 C0.65 10.33 2.3 10.66 4 11 C3.71125 10.37351563 3.4225 9.74703125 3.125 9.1015625 C2.75375 8.28429687 2.3825 7.46703125 2 6.625 C1.62875 5.81289062 1.2575 5.00078125 0.875 4.1640625 C0 2 0 2 0 0 Z " fill="#555455" transform="translate(63,142)"/>
<path d="M0 0 C1.9375 1.6875 1.9375 1.6875 3 4 C2.1875 7.25 2.1875 7.25 1 10 C-0.23037303 7.53925394 0 5.7202437 0 3 C-0.33 2.67 -0.66 2.34 -1 2 C-3.33944736 2.28730055 -5.6739143 2.61936779 -8 3 C-8.33 4.98 -8.66 6.96 -9 9 C-3.56771648 10.46828485 -3.56771648 10.46828485 2 11 C2 11.99 2 12.98 2 14 C-0.75 14.75 -0.75 14.75 -4 15 C-6.25 13.125 -6.25 13.125 -8 11 C-8.66 10.67 -9.32 10.34 -10 10 C-10.43126685 4.73854447 -10.43126685 4.73854447 -10 2 C-6.72472461 -1.0881168 -4.18679903 -1.65268383 0 0 Z " fill="#6C6841" transform="translate(111,159)"/>
<path d="M0 0 C-0.99 0.495 -0.99 0.495 -2 1 C-2 1.66 -2 2.32 -2 3 C-5.65310599 4.2743393 -9.19694537 5.2994373 -13 6 C-13.66 6.165 -14.32 6.33 -15 6.5 C-17.31951587 7.07987897 -19.65338104 7.54371298 -22 8 C-19.75 5.5 -19.75 5.5 -17 3 C-15.68 3 -14.36 3 -13 3 C-14.32 2.34 -15.64 1.68 -17 1 C-11.30494264 0.3583034 -5.73266804 -0.12462322 0 0 Z " fill="#2F2F37" transform="translate(39,56)"/>
<path d="M0 0 C0.61875 0.391875 1.2375 0.78375 1.875 1.1875 C2.535 1.5175 3.195 1.8475 3.875 2.1875 C3.545 4.1675 3.215 6.1475 2.875 8.1875 C0.565 7.8575 -1.745 7.5275 -4.125 7.1875 C-4.785 5.2075 -5.445 3.2275 -6.125 1.1875 C-2.68237705 -1.02561475 -2.68237705 -1.02561475 0 0 Z " fill="#E8E7DA" transform="translate(63.125,76.8125)"/>
<path d="M0 0 C0.89203125 0.0721875 1.7840625 0.144375 2.703125 0.21875 C4.45882812 0.35796875 4.45882812 0.35796875 6.25 0.5 C7.41015625 0.5928125 8.5703125 0.685625 9.765625 0.78125 C12.17268658 0.94404644 14.58743951 1 17 1 C17 1.99 17 2.98 17 4 C11.33357449 5.22517308 5.76291482 5.09228867 0 5 C-0.33 4.01 -0.66 3.02 -1 2 C-0.67 1.34 -0.34 0.68 0 0 Z " fill="#13131D" transform="translate(119,45)"/>
<path d="M0 0 C0.33 0.66 0.66 1.32 1 2 C7.6 2 14.2 2 21 2 C21 1.34 21 0.68 21 0 C22.0725 0.165 23.145 0.33 24.25 0.5 C28.03028752 1.08810915 28.03028752 1.08810915 32 1 C34.00401011 1.30830925 36.00511766 1.63729412 38 2 C38 2.33 38 2.66 38 3 C23.48 3 8.96 3 -6 3 C-6 2.67 -6 2.34 -6 2 C-4.02 2 -2.04 2 0 2 C0 1.34 0 0.68 0 0 Z " fill="#505050" transform="translate(36,177)"/>
<path d="M0 0 C4.27056661 1.74949682 5.36216132 3.90850221 7.25 7.95703125 C8.14686826 10.40006301 8.32251441 12.4198847 8 15 C9.32 14.67 10.64 14.34 12 14 C11.67 14.66 11.34 15.32 11 16 C9.35 16 7.7 16 6 16 C5.67 13.69 5.34 11.38 5 9 C4.67 11.31 4.34 13.62 4 16 C3.34 15.67 2.68 15.34 2 15 C1.62109375 12.63671875 1.62109375 12.63671875 1.4375 9.6875 C1.21800827 6.33241217 0.93022061 3.23655269 0 0 Z " fill="#4A4A4C" transform="translate(134,108)"/>
<path d="M0 0 C0.33 0 0.66 0 1 0 C1.03738281 0.68707031 1.07476562 1.37414062 1.11328125 2.08203125 C1.17902344 2.98308594 1.24476562 3.88414063 1.3125 4.8125 C1.37050781 5.70582031 1.42851563 6.59914063 1.48828125 7.51953125 C2.07443459 10.36080887 2.79850491 11.18988181 5 13 C5.66 13.66 6.32 14.32 7 15 C4.03 18.465 4.03 18.465 1 22 C0.34 21.67 -0.32 21.34 -1 21 C-0.01 19.68 0.98 18.36 2 17 C1.51015625 16.60683594 1.0203125 16.21367188 0.515625 15.80859375 C-1.46992026 13.43924464 -1.34178898 12.11448344 -1.25 9.0625 C-1.23453125 8.20785156 -1.2190625 7.35320312 -1.203125 6.47265625 C-1.01658587 4.20190102 -0.62855941 2.18475086 0 0 Z " fill="#313132" transform="translate(5,88)"/>
<path d="M0 0 C3 1 3 1 4.1875 2.6875 C5.19313465 5.54969093 5.13689641 7.98827908 5 11 C3.68 11 2.36 11 1 11 C-1.25 8.5 -1.25 8.5 -3 6 C-2 4 -1 2 0 0 Z " fill="#DDDDDD" transform="translate(142,78)"/>
<path d="M0 0 C-0.66 2.64 -1.32 5.28 -2 8 C-6.95 8 -11.9 8 -17 8 C-17 7.67 -17 7.34 -17 7 C-15.453125 6.938125 -15.453125 6.938125 -13.875 6.875 C-9.45606212 5.87717532 -8.21773644 4.65861091 -5.45703125 1.27734375 C-4 0 -4 0 0 0 Z " fill="#20201F" transform="translate(123,172)"/>
<path d="M0 0 C1.79236067 0.47656412 3.58386897 0.95633498 5.375 1.4375 C6.37273438 1.70433594 7.37046875 1.97117187 8.3984375 2.24609375 C11 3 11 3 13 4 C13.33 2.68 13.66 1.36 14 0 C14 1.98 14 3.96 14 6 C10.95240395 7.01586535 9.54906747 7.00433442 6.4375 6.625 C5.65246094 6.53476563 4.86742187 6.44453125 4.05859375 6.3515625 C2 6 2 6 0 5 C0 3.35 0 1.7 0 0 Z " fill="#4C4C4C" transform="translate(0,124)"/>
<path d="M0 0 C0.66 0 1.32 0 2 0 C2.125 6.75 2.125 6.75 1 9 C1.66 9 2.32 9 3 9 C3.28875 9.969375 3.5775 10.93875 3.875 11.9375 C4.64214682 15.10664203 4.64214682 15.10664203 7 16 C5.68 16 4.36 16 3 16 C2.67 14.02 2.34 12.04 2 10 C0.68 10.33 -0.64 10.66 -2 11 C-3.14947895 7.44706507 -3.0868937 6.20023331 -1.5625 2.6875 C-1.046875 1.800625 -0.53125 0.91375 0 0 Z " fill="#2E2E2D" transform="translate(54,69)"/>
<path d="M0 0 C4.95 0 9.9 0 15 0 C14 3 14 3 12 4 C11.67 4.66 11.34 5.32 11 6 C9.53775201 5.57576756 8.08026588 5.13509755 6.625 4.6875 C5.81289062 4.44386719 5.00078125 4.20023437 4.1640625 3.94921875 C2 3 2 3 0 0 Z " fill="#858472" transform="translate(105,114)"/>
<path d="M0 0 C0.66 0.33 1.32 0.66 2 1 C2 1.66 2 2.32 2 3 C2.99 3.33 3.98 3.66 5 4 C2.36 5.65 -0.28 7.3 -3 9 C-3.66 8.34 -4.32 7.68 -5 7 C-5 5.68 -5 4.36 -5 3 C-2.625 1.1875 -2.625 1.1875 0 0 Z " fill="#282827" transform="translate(47,166)"/>
<path d="M0 0 C0.721875 0.144375 1.44375 0.28875 2.1875 0.4375 C1.1975 0.9325 1.1975 0.9325 0.1875 1.4375 C-0.28204261 4.48331269 -0.28204261 4.48331269 -0.4375 8 C-0.54964844 9.79630859 -0.54964844 9.79630859 -0.6640625 11.62890625 C-0.71304687 12.55574219 -0.76203125 13.48257813 -0.8125 14.4375 C-1.1425 14.4375 -1.4725 14.4375 -1.8125 14.4375 C-2.1425 11.4675 -2.4725 8.4975 -2.8125 5.4375 C-3.8025 7.4175 -4.7925 9.3975 -5.8125 11.4375 C-6.4725 10.1175 -7.1325 8.7975 -7.8125 7.4375 C-3.69871444 0.57535558 -3.69871444 0.57535558 0 0 Z " fill="#D4D4D4" transform="translate(19.8125,65.5625)"/>
<path d="M0 0 C2.35448675 -0.05454409 4.70767875 -0.0939279 7.0625 -0.125 C9.02896484 -0.15980469 9.02896484 -0.15980469 11.03515625 -0.1953125 C15.11824299 0.00582478 18.14999053 0.72834538 22 2 C22 2.33 22 2.66 22 3 C18.89601022 3.08710289 15.79233452 3.14042309 12.6875 3.1875 C11.80642578 3.21263672 10.92535156 3.23777344 10.01757812 3.26367188 C8.74624023 3.27817383 8.74624023 3.27817383 7.44921875 3.29296875 C6.66893311 3.3086792 5.88864746 3.32438965 5.0847168 3.34057617 C2.50096147 2.91847304 1.63707833 1.98510058 0 0 Z " fill="#656566" transform="translate(68,137)"/>
<path d="M0 0 C2.97 0.495 2.97 0.495 6 1 C6 2.98 6 4.96 6 7 C5.67 7 5.34 7 5 7 C5 5.35 5 3.7 5 2 C3.68 2 2.36 2 1 2 C1.04125 3.0725 1.0825 4.145 1.125 5.25 C1.0114175 8.65747485 0.78726636 10.20739631 -1 13 C-2.83354669 9.22505093 -3.27227191 7.02886104 -2 3 C-1.34 2.01 -0.68 1.02 0 0 Z " fill="#656454" transform="translate(49,89)"/>
<path d="M0 0 C0.99 0.33 1.98 0.66 3 1 C2.67 1.99 2.34 2.98 2 4 C-2.7300622 5.8621508 -7.96242242 6.25833731 -13 6 C-13 5.34 -13 4.68 -13 4 C-12.14535156 3.79503906 -11.29070312 3.59007813 -10.41015625 3.37890625 C-9.30542969 3.10949219 -8.20070313 2.84007813 -7.0625 2.5625 C-5.40927734 2.16224609 -5.40927734 2.16224609 -3.72265625 1.75390625 C-1.10578746 1.27004275 -1.10578746 1.27004275 0 0 Z " fill="#555445" transform="translate(121,90)"/>
<path d="M0 0 C0.350625 0.639375 0.70125 1.27875 1.0625 1.9375 C3.77184206 4.82163832 6.15858911 4.7100822 10 5 C10 5.33 10 5.66 10 6 C9.236875 6.12375 8.47375 6.2475 7.6875 6.375 C4.79732864 6.88102792 4.79732864 6.88102792 2 9 C0.67479497 9.68268138 -0.65812182 10.3507041 -2 11 C-2.99 11.495 -2.99 11.495 -4 12 C-4 11.01 -4 10.02 -4 9 C-3.34 8.67 -2.68 8.34 -2 8 C-1.62599214 5.67284 -1.29235267 3.33882138 -1 1 C-0.67 0.67 -0.34 0.34 0 0 Z " fill="#4A4A4C" transform="translate(4,54)"/>
<path d="M0 0 C1.65 0.33 3.3 0.66 5 1 C5 2.98 5 4.96 5 7 C-1.75 6.25 -1.75 6.25 -4 4 C-3.34 4 -2.68 4 -2 4 C-1.34 2.68 -0.68 1.36 0 0 Z " fill="#858585" transform="translate(44,112)"/>
<path d="M0 0 C0.33 0 0.66 0 1 0 C0.85848172 2.0836309 0.71162064 4.16689938 0.5625 6.25 C0.48128906 7.41015625 0.40007813 8.5703125 0.31640625 9.765625 C0.06752213 12.30977376 -0.28114942 14.55953248 -1 17 C-1.66 17 -2.32 17 -3 17 C-3.40368295 10.54107286 -2.5915262 5.93891422 0 0 Z " fill="#D2D2D2" transform="translate(15,77)"/>
<path d="M0 0 C0.33 0 0.66 0 1 0 C1.103125 0.99 1.20625 1.98 1.3125 3 C2.09447365 8.49615766 3.9256202 13.3884303 7 18 C4.69 18.33 2.38 18.66 0 19 C0.185625 18.484375 0.37125 17.96875 0.5625 17.4375 C1.15504909 14.13615506 0.49683704 11.31224697 0 8 C-0.0842947 5.32598469 -0.04695348 2.67634856 0 0 Z " fill="#91917E" transform="translate(79,84)"/>
<path d="M0 0 C3.10096781 0.34455198 4.79937138 0.84817294 7.3125 2.75 C9.30929204 5.41238939 9.36116409 6.74952319 9 10 C5.13322435 8.533292 3.99014441 6.52798328 2 3 C1.34 2.67 0.68 2.34 0 2 C0 1.34 0 0.68 0 0 Z " fill="#F2EEA3" transform="translate(61,87)"/>
<path d="M0 0 C3.84369366 1.56594927 6.09461006 4.09461006 9 7 C10.093125 7.70125 11.18625 8.4025 12.3125 9.125 C13.6428125 10.053125 13.6428125 10.053125 15 11 C15 11.99 15 12.98 15 14 C10.79132592 12.61949521 8.33503724 10.71482832 5.25 7.5625 C4.47140625 6.78003906 3.6928125 5.99757813 2.890625 5.19140625 C1 3 1 3 0 0 Z " fill="#E1E1C9" transform="translate(83,81)"/>
<path d="M0 0 C2.50816459 2.50816459 3.61410019 3.90837736 5 7 C4.01 7.495 4.01 7.495 3 8 C2.443125 7.319375 1.88625 6.63875 1.3125 5.9375 C-0.82677068 3.68829222 -0.82677068 3.68829222 -3.5625 4.1875 C-4.366875 4.455625 -5.17125 4.72375 -6 5 C-6.99 5.33 -7.98 5.66 -9 6 C-9 5.34 -9 4.68 -9 4 C-9.66 3.67 -10.32 3.34 -11 3 C-7.37 2.01 -3.74 1.02 0 0 Z " fill="#D9D68F" transform="translate(110,155)"/>
<path d="M0 0 C0.33 1.32 0.66 2.64 1 4 C5.29 4.33 9.58 4.66 14 5 C14 5.33 14 5.66 14 6 C5.585 6.495 5.585 6.495 -3 7 C-3.66 5.35 -4.32 3.7 -5 2 C-3.35 1.34 -1.7 0.68 0 0 Z " fill="#848484" transform="translate(106,132)"/>
<path d="M0 0 C0.33 0 0.66 0 1 0 C1.05384521 2.29141286 1.09272087 4.58318188 1.125 6.875 C1.14820313 8.15117188 1.17140625 9.42734375 1.1953125 10.7421875 C1 14 1 14 -1 16 C-1.33 13.36 -1.66 10.72 -2 8 C-2.66 8.66 -3.32 9.32 -4 10 C-3.4359146 6.05140217 -2.2568294 3.29120954 0 0 Z " fill="#282828" transform="translate(17,70)"/>
<path d="M0 0 C4 4.75 4 4.75 4 7 C5.65 6.67 7.3 6.34 9 6 C8.67 8.31 8.34 10.62 8 13 C7.34 12.67 6.68 12.34 6 12 C6.33 10.68 6.66 9.36 7 8 C4.36 8.33 1.72 8.66 -1 9 C-0.01 8.67 0.98 8.34 2 8 C0.88145414 4.27385847 0.88145414 4.27385847 -2 2 C-1.34 2 -0.68 2 0 2 C0 1.34 0 0.68 0 0 Z " fill="#444445" transform="translate(137,62)"/>
<path d="M0 0 C0.33 0 0.66 0 1 0 C1.05384521 2.29141286 1.09272087 4.58318188 1.125 6.875 C1.14820312 8.15117187 1.17140625 9.42734375 1.1953125 10.7421875 C1 14 1 14 -1 16 C-3.18040395 12.72939407 -3.22083539 12.23625511 -2.75 8.5625 C-2.66234375 7.80066406 -2.5746875 7.03882813 -2.484375 6.25390625 C-1.97971611 3.90561448 -1.16278978 2.0920685 0 0 Z " fill="#3C3C44" transform="translate(115,19)"/>
<path d="M0 0 C0.33 0.66 0.66 1.32 1 2 C1.66 2.33 2.32 2.66 3 3 C3 4.32 3 5.64 3 7 C3.99 7 4.98 7 6 7 C5.67 8.32 5.34 9.64 5 11 C2.69 11 0.38 11 -2 11 C-1.34 7.37 -0.68 3.74 0 0 Z " fill="#44443E" transform="translate(45,102)"/>
<path d="M0 0 C1.32 0 2.64 0 4 0 C4 2.97 4 5.94 4 9 C2.68 9.33 1.36 9.66 0 10 C0 6.7 0 3.4 0 0 Z " fill="#1F1F1D" transform="translate(50,91)"/>
<path d="M0 0 C0.33 0.66 0.66 1.32 1 2 C-2.75 6.875 -2.75 6.875 -5 8 C-6.54023996 8.06950541 -8.08334988 8.08452357 -9.625 8.0625 C-10.85089844 8.04896484 -10.85089844 8.04896484 -12.1015625 8.03515625 C-13.04128906 8.01775391 -13.04128906 8.01775391 -14 8 C-14 7.34 -14 6.68 -14 6 C-13.38125 5.71125 -12.7625 5.4225 -12.125 5.125 C-9.86674235 4.06279958 -9.86674235 4.06279958 -8 2 C-8 2.99 -8 3.98 -8 5 C-4.75791433 4.64950425 -3.38472296 4.43778819 -1.1875 1.9375 C-0.795625 1.298125 -0.40375 0.65875 0 0 Z " fill="#43423D" transform="translate(70,102)"/>
<path d="M0 0 C2.5654594 2.5654594 2.54046087 4.47686668 3 8 C3.66 8 4.32 8 5 8 C5.66 9.32 6.32 10.64 7 12 C4.625 12.625 4.625 12.625 2 13 C1.34 12.34 0.68 11.68 0 11 C0 7.33333333 0 3.66666667 0 0 Z " fill="#0F0F10" transform="translate(46,97)"/>
<path d="M0 0 C2.375 -0.125 2.375 -0.125 5 0 C5.66 0.66 6.32 1.32 7 2 C6.625 5.625 6.625 5.625 6 9 C4.35 8.67 2.7 8.34 1 8 C1 6.68 1 5.36 1 4 C2.98 4.495 2.98 4.495 5 5 C4.33131686 1.88667752 4.33131686 1.88667752 1.9375 0.8125 C1.298125 0.544375 0.65875 0.27625 0 0 Z " fill="#FAF696" transform="translate(105,160)"/>
<path d="M0 0 C0.33 2.31 0.66 4.62 1 7 C-2 7 -2 7 -4 6 C-4 5.34 -4 4.68 -4 4 C-5.32 3.34 -6.64 2.68 -8 2 C-8 1.67 -8 1.34 -8 1 C-5.23735711 0.40267181 -2.83967231 0 0 0 Z " fill="#818080" transform="translate(38,130)"/>
<path d="M0 0 C0.309375 0.639375 0.61875 1.27875 0.9375 1.9375 C1.8345163 3.93610821 1.8345163 3.93610821 3 5 C3.33 4.01 3.66 3.02 4 2 C5.32 2.33 6.64 2.66 8 3 C7.01 4.485 7.01 4.485 6 6 C6 7.32 6 8.64 6 10 C3.53199953 8.84826645 1.95216435 7.95216435 0 6 C0 5.01 0 4.02 0 3 C-0.66 2.67 -1.32 2.34 -2 2 C-1.34 2 -0.68 2 0 2 C0 1.34 0 0.68 0 0 Z " fill="#404041" transform="translate(17,119)"/>
<path d="M0 0 C3.56841333 1.18947111 4.20743736 1.74079519 6 5 C6.54122006 7.98959651 6.81219964 10.96929078 7 14 C6.34 14 5.68 14 5 14 C4.54625 12.9275 4.0925 11.855 3.625 10.75 C2.75087221 8.69517827 1.85577339 6.72672852 0.8125 4.75 C0 3 0 3 0 0 Z " fill="#2A2A2B" transform="translate(143,74)"/>
<path d="M0 0 C3.63 0.33 7.26 0.66 11 1 C11 1.99 11 2.98 11 4 C10.01 4.66 9.02 5.32 8 6 C8 5.01 8 4.02 8 3 C5.36 3.33 2.72 3.66 0 4 C0 2.68 0 1.36 0 0 Z " fill="#A1A1A1" transform="translate(0,129)"/>
<path d="M0 0 C0.33 0.66 0.66 1.32 1 2 C0.67 2.99 0.34 3.98 0 5 C0.66 5.66 1.32 6.32 2 7 C2 7.66 2 8.32 2 9 C1.01 9 0.02 9 -1 9 C-2.01405257 7.67732273 -3.01268258 6.34275169 -4 5 C-6.08334635 3.7483533 -6.08334635 3.7483533 -8 3 C-5.36 2.01 -2.72 1.02 0 0 Z " fill="#908E70" transform="translate(42,112)"/>
<path d="M0 0 C1.98 0 3.96 0 6 0 C6.33 1.32 6.66 2.64 7 4 C5.68 3.67 4.36 3.34 3 3 C3 3.66 3 4.32 3 5 C1.68 5 0.36 5 -1 5 C-0.67 3.35 -0.34 1.7 0 0 Z " fill="#C7C47C" transform="translate(103,161)"/>
<path d="M0 0 C0.99 0.33 1.98 0.66 3 1 C1.44396229 4.81936528 -0.95604931 7.26044438 -4 10 C-4.66 10 -5.32 10 -6 10 C-4.6302836 6.00499382 -2.74277578 3.19990508 0 0 Z " fill="#EAE692" transform="translate(91,169)"/>
<path d="M0 0 C-1.66666667 3.33333333 -3.33333333 6.66666667 -5 10 C-5.66 9.67 -6.32 9.34 -7 9 C-6.34 7.35 -5.68 5.7 -5 4 C-5.99 3.34 -6.98 2.68 -8 2 C-4.91190305 0.23537317 -3.76687864 0 0 0 Z " fill="#696969" transform="translate(88,169)"/>
<path d="M0 0 C2.375 3.125 2.375 3.125 4 6 C3.34 6.66 2.68 7.32 2 8 C1.566875 7.21625 1.13375 6.4325 0.6875 5.625 C-0.89220247 2.78301625 -0.89220247 2.78301625 -4 1 C-7.12521833 0.83300768 -7.12521833 0.83300768 -10 1 C-10 0.34 -10 -0.32 -10 -1 C-6.15597367 -2.47847167 -3.65517594 -1.75143847 0 0 Z " fill="#31312D" transform="translate(68,87)"/>
<path d="M0 0 C0.66 0.66 1.32 1.32 2 2 C1.67 2.99 1.34 3.98 1 5 C0.34 4.34 -0.32 3.68 -1 3 C-4.61754103 2.61920621 -6.88401212 3.15348866 -10 5 C-7.66986569 -0.1595831 -5.58220377 -0.34888774 0 0 Z " fill="#EDECC6" transform="translate(108,78)"/>
<path d="M0 0 C0.33 0.66 0.66 1.32 1 2 C-1.36292656 4.52588702 -2.66462511 5.88820837 -6 7 C-6 6.34 -6 5.68 -6 5 C-6.66 4.67 -7.32 4.34 -8 4 C-5.60490662 1.10067643 -3.68754757 0.49831724 0 0 Z " fill="#575757" transform="translate(145,44)"/>
<path d="M0 0 C0.33 0.99 0.66 1.98 1 3 C-0.9375 6.1875 -0.9375 6.1875 -3 9 C-3.99 8.67 -4.98 8.34 -6 8 C-5.42415568 5.61435923 -4.77772405 3.33317216 -4 1 C-3.34 1.33 -2.68 1.66 -2 2 C-2 2.66 -2 3.32 -2 4 C-1.34 2.68 -0.68 1.36 0 0 Z " fill="#F5EF92" transform="translate(62,99)"/>
<path d="M0 0 C1.0828125 0.495 1.0828125 0.495 2.1875 1 C5.01697427 2.00603529 7.02895466 2.16977402 10 2 C10 2.99 10 3.98 10 5 C7.25 5.75 7.25 5.75 4 6 C1.625 4.1875 1.625 4.1875 0 2 C0 1.34 0 0.68 0 0 Z " fill="#807D51" transform="translate(103,168)"/>
<path d="M0 0 C1.98 0 3.96 0 6 0 C6 2.31 6 4.62 6 7 C2.58841744 5.86280581 1.88145399 4.95657056 0 2 C0 1.34 0 0.68 0 0 Z " fill="#ECE890" transform="translate(95,159)"/>
<path d="M0 0 C0 3.63 0 7.26 0 11 C-3.93846154 6.69230769 -3.93846154 6.69230769 -4.25 3.1875 C-4.1675 2.465625 -4.085 1.74375 -4 1 C-2 0 -2 0 0 0 Z " fill="#CCCCCC" transform="translate(42,129)"/>
<path d="M0 0 C4.54394294 0.53458152 7.29512312 2.39870347 11 5 C12.3191582 5.69429379 13.64649406 6.37530495 15 7 C8.94696161 6.6216851 4.81617877 4.70282835 0 1 C0 0.67 0 0.34 0 0 Z " fill="#2C2C2E" transform="translate(24,123)"/>
<path d="M0 0 C1.65 0 3.3 0 5 0 C5 0.66 5 1.32 5 2 C4.34 2 3.68 2 3 2 C3.66 3.32 4.32 4.64 5 6 C3.35 6 1.7 6 0 6 C0 4.02 0 2.04 0 0 Z " fill="#969696" transform="translate(43,133)"/>
<path d="M0 0 C0.66 0 1.32 0 2 0 C1 3 1 3 -1 5 C-1.69748583 6.31747324 -2.36959957 7.64914193 -3 9 C-3 8.01 -3 7.02 -3 6 C-3.99 6.33 -4.98 6.66 -6 7 C-8.1875 6.0625 -8.1875 6.0625 -10 5 C-8.906875 4.731875 -7.81375 4.46375 -6.6875 4.1875 C-3.26833673 3.08641352 -2.22408019 2.57525074 0 0 Z " fill="#424243" transform="translate(45,123)"/>
<path d="M0 0 C0.33 0 0.66 0 1 0 C0.50269348 4.97306516 -0.55302334 8.63799813 -3 13 C-3.99 13 -4.98 13 -6 13 C-5.360625 11.948125 -4.72125 10.89625 -4.0625 9.8125 C-2.37204481 6.87801264 -1.496374 4.37534323 -1 1 C-0.67 0.67 -0.34 0.34 0 0 Z " fill="#2A2B2C" transform="translate(148,42)"/>
<path d="M0 0 C0.33 0.66 0.66 1.32 1 2 C1.66 2 2.32 2 3 2 C3 2.66 3 3.32 3 4 C5.31 4 7.62 4 10 4 C9.34 5.32 8.68 6.64 8 8 C8 7.34 8 6.68 8 6 C7.1646875 6.3403125 7.1646875 6.3403125 6.3125 6.6875 C3.07876916 7.12449065 1.60926022 5.81198627 -1 4 C-0.67 2.68 -0.34 1.36 0 0 Z " fill="#E7E496" transform="translate(103,164)"/>
<path d="M0 0 C0.33 0 0.66 0 1 0 C1.07347656 1.06541016 1.07347656 1.06541016 1.1484375 2.15234375 C1.22320312 3.07144531 1.29796875 3.99054688 1.375 4.9375 C1.44460937 5.85402344 1.51421875 6.77054688 1.5859375 7.71484375 C1.72257812 8.46894531 1.85921875 9.22304687 2 10 C2.66 10.33 3.32 10.66 4 11 C3.01 11.33 2.02 11.66 1 12 C-2.0656304 5.62348877 -2.0656304 5.62348877 -1.75 2.625 C-1 1 -1 1 0 0 Z " fill="#404042" transform="translate(40,158)"/>
<path d="M0 0 C0 1.98 0 3.96 0 6 C-3 6 -3 6 -5.1875 4 C-5.785625 3.34 -6.38375 2.68 -7 2 C-1.125 0 -1.125 0 0 0 Z " fill="#DDDDDD" transform="translate(41,136)"/>
<path d="M0 0 C0.33 0 0.66 0 1 0 C1 1.98 1 3.96 1 6 C-2.62326739 7.2077558 -3.64146369 6.54311128 -7 5 C-6.67 4.34 -6.34 3.68 -6 3 C-3.03 3.495 -3.03 3.495 0 4 C0 2.68 0 1.36 0 0 Z " fill="#1E1E1F" transform="translate(13,124)"/>
<path d="M0 0 C1.65 0 3.3 0 5 0 C4.67 1.65 4.34 3.3 4 5 C2.68 4.67 1.36 4.34 0 4 C0 2.68 0 1.36 0 0 Z " fill="#ECECEC" transform="translate(44,139)"/>
<path d="M0 0 C4.95 0 9.9 0 15 0 C15 0.33 15 0.66 15 1 C10.05 1.66 5.1 2.32 0 3 C0 2.01 0 1.02 0 0 Z " fill="#7A7A7A" transform="translate(12,116)"/>
<path d="M0 0 C2.19470368 3.95046662 3 7.48763697 3 12 C2.01 12 1.02 12 0 12 C0 10.68 0 9.36 0 8 C-0.66 7.34 -1.32 6.68 -2 6 C-1.34 4.02 -0.68 2.04 0 0 Z " fill="#444445" transform="translate(147,84)"/>
<path d="M0 0 C0.99 0 1.98 0 3 0 C3 1.32 3 2.64 3 4 C0.36 4 -2.28 4 -5 4 C-5.33 3.34 -5.66 2.68 -6 2 C-4.7934375 1.7834375 -4.7934375 1.7834375 -3.5625 1.5625 C-1.07896294 1.25864751 -1.07896294 1.25864751 0 0 Z " fill="#050509" transform="translate(20,46)"/>
<path d="M0 0 C-0.33 1.32 -0.66 2.64 -1 4 C-3.31 4.66 -5.62 5.32 -8 6 C-8 5.34 -8 4.68 -8 4 C-7.01 3.67 -6.02 3.34 -5 3 C-5 2.34 -5 1.68 -5 1 C-2 0 -2 0 0 0 Z " fill="#E9E591" transform="translate(113,173)"/>
<path d="M0 0 C0.66 0 1.32 0 2 0 C2 0.66 2 1.32 2 2 C2.66 2 3.32 2 4 2 C3.6875 3.875 3.6875 3.875 3 6 C2.01 6.66 1.02 7.32 0 8 C0 5.36 0 2.72 0 0 Z " fill="#FBF694" transform="translate(113,167)"/>
<path d="M0 0 C-0.66 1.65 -1.32 3.3 -2 5 C-2.66 4.34 -3.32 3.68 -4 3 C-5.98821313 2.60235737 -7.98944339 2.26224651 -10 2 C-6.16991045 -0.55339303 -4.41711378 -1.47237126 0 0 Z " fill="#323233" transform="translate(93,136)"/>
<path d="M0 0 C2.57455698 2.57455698 2.41265954 4.47595722 3 8 C3.66 8.66 4.32 9.32 5 10 C3.68 10 2.36 10 1 10 C-0.60725635 6.78548731 -0.05748185 3.56387464 0 0 Z " fill="#CFCFCF" transform="translate(138,115)"/>
<path d="M0 0 C0.33 0.66 0.66 1.32 1 2 C1.99 2.33 2.98 2.66 4 3 C-4.03571429 5.27678571 -4.03571429 5.27678571 -8 4 C-4.77208445 1.8480563 -3.71599191 1.79913557 0 2 C0 1.34 0 0.68 0 0 Z " fill="#D3D2AF" transform="translate(116,89)"/>
<path d="M0 0 C0.99 0.33 1.98 0.66 3 1 C3.70381157 2.98723268 4.3711811 4.98777953 5 7 C5.66 7.33 6.32 7.66 7 8 C5.68 8 4.36 8 3 8 C2.67 6.02 2.34 4.04 2 2 C0.68 2.33 -0.64 2.66 -2 3 C-1.34 2.01 -0.68 1.02 0 0 Z " fill="#919075" transform="translate(54,77)"/>
<path d="M0 0 C2.02907167 3.3146667 2.12742133 5.4315979 1.625 9.25 C1.51414062 10.14203125 1.40328125 11.0340625 1.2890625 11.953125 C1.19367188 12.62859375 1.09828125 13.3040625 1 14 C0.67 14 0.34 14 0 14 C-0.19393875 11.85473901 -0.37998676 9.70876323 -0.5625 7.5625 C-0.71912109 5.77005859 -0.71912109 5.77005859 -0.87890625 3.94140625 C-0.91886719 2.97074219 -0.95882812 2.00007813 -1 1 C-0.67 0.67 -0.34 0.34 0 0 Z " fill="#49473A" transform="translate(79,70)"/>
<path d="M0 0 C0.66 1.65 1.32 3.3 2 5 C-0.97 4.505 -0.97 4.505 -4 4 C-4.33 3.01 -4.66 2.02 -5 1 C-3 0 -3 0 0 0 Z " fill="#DCDCDC" transform="translate(137,65)"/>
<path d="M0 0 C0.66 0 1.32 0 2 0 C2.625 1.875 2.625 1.875 3 4 C2.34 4.66 1.68 5.32 1 6 C-0.32 5.01 -1.64 4.02 -3 3 C-2.34 3 -1.68 3 -1 3 C-0.67 2.01 -0.34 1.02 0 0 Z " fill="#E3E3E1" transform="translate(43,113)"/>
<path d="M0 0 C1.9375 0.75 1.9375 0.75 4 2 C4.75 4.125 4.75 4.125 5 6 C4.34 6 3.68 6 3 6 C2.67 6.66 2.34 7.32 2 8 C1.34 5.36 0.68 2.72 0 0 Z " fill="#2C2C2C" transform="translate(134,108)"/>
<path d="M0 0 C1.485 0.99 1.485 0.99 3 2 C3.1875 4.625 3.1875 4.625 3 7 C1.68 6.34 0.36 5.68 -1 5 C-0.67 3.35 -0.34 1.7 0 0 Z " fill="#E4E4DD" transform="translate(67,90)"/>
<path d="M0 0 C0.66 1.32 1.32 2.64 2 4 C1.34 4 0.68 4 0 4 C-0.28875 4.61875 -0.5775 5.2375 -0.875 5.875 C-2 8 -2 8 -4 10 C-3.43454163 6.04179141 -2.19097652 3.3340947 0 0 Z " fill="#373738" transform="translate(142,74)"/>
<path d="M0 0 C0.66 0 1.32 0 2 0 C1.67 2.31 1.34 4.62 1 7 C0.01 7 -0.98 7 -2 7 C-1.125 2.25 -1.125 2.25 0 0 Z " fill="#DFDFDF" transform="translate(11,75)"/>
<path d="M0 0 C0.99 0.33 1.98 0.66 3 1 C2.67 2.32 2.34 3.64 2 5 C1.01 5 0.02 5 -1 5 C-1.33 3.68 -1.66 2.36 -2 1 C-1.34 0.67 -0.68 0.34 0 0 Z " fill="#36363C" transform="translate(136,48)"/>
<path d="M0 0 C0.33 1.32 0.66 2.64 1 4 C2.65 4.33 4.3 4.66 6 5 C6 5.33 6 5.66 6 6 C3.69 6 1.38 6 -1 6 C-0.67 4.02 -0.34 2.04 0 0 Z " fill="#D7D4A0" transform="translate(56,72)"/>
<path d="M0 0 C1.98 0 3.96 0 6 0 C5.67 0.99 5.34 1.98 5 3 C3.35 3.33 1.7 3.66 0 4 C0 2.68 0 1.36 0 0 Z " fill="#3C3C41" transform="translate(7,60)"/>
<path d="M0 0 C0.33 0.99 0.66 1.98 1 3 C0.01 3.99 -0.98 4.98 -2 6 C-2.99 4.68 -3.98 3.36 -5 2 C-4.01 1.67 -3.02 1.34 -2 1 C-1.34 1.33 -0.68 1.66 0 2 C0 1.34 0 0.68 0 0 Z " fill="#11111A" transform="translate(55,16)"/>
</svg>
